<svg width="280" height="322" viewBox="0 0 280 322" fill="none" xmlns="http://www.w3.org/2000/svg">
<path d="M270.935 154.24L226.691 161.089C225.001 161.351 223.843 162.933 224.105 164.623L228.276 191.572C228.538 193.262 230.12 194.42 231.81 194.158L276.054 187.309C277.744 187.047 278.902 185.465 278.641 183.775L274.469 156.827C274.207 155.136 272.625 153.979 270.935 154.24Z" stroke="#263238" stroke-linecap="round" stroke-linejoin="round"/>
<path d="M224.78 168.973L275.144 161.177" stroke="#263238" stroke-linecap="round" stroke-linejoin="round"/>
<path d="M271.206 170.018L263.071 171.277L264.884 182.992L273.02 181.732L271.206 170.018Z" stroke="#263238" stroke-linecap="round" stroke-linejoin="round"/>
<path d="M266.373 173.195C268.092 171.149 270.915 172.513 270.254 178.863L272.771 180.112L273.016 181.708L264.886 182.969L264.552 180.835L267.621 179.641C267.621 179.641 264.756 175.126 266.373 173.195Z" stroke="#263238" stroke-linecap="round" stroke-linejoin="round"/>
<path d="M248.728 187.519C248.728 187.519 254.607 187.567 252.922 186.393C251.238 185.22 250.985 184.034 252.418 184.013C253.85 183.993 256.251 186.741 256.06 185.063C255.869 183.386 256.906 184.477 257.103 184.586C257.301 184.695 259 184.013 259.081 184.211C259.163 184.409 259.047 184.961 264.579 184.109" stroke="#263238" stroke-linecap="round" stroke-linejoin="round"/>
<path d="M229.05 174.205L253.714 170.385" stroke="#263238" stroke-linecap="round" stroke-linejoin="round"/>
<path d="M229.487 177.001L244.015 174.75" stroke="#263238" stroke-linecap="round" stroke-linejoin="round"/>
<path d="M230.25 181.933L250.515 178.795" stroke="#263238" stroke-linecap="round" stroke-linejoin="round"/>
<path d="M236.539 163.49L261.271 159.656" stroke="#263238" stroke-linecap="round" stroke-linejoin="round"/>
<path d="M1 146.213L56.2954 135.17L75.6048 227.877L16.8308 240.482L1 146.213Z" stroke="#263238" stroke-linecap="round" stroke-linejoin="round"/>
<path d="M14.6074 227.256L73.2654 216.636" stroke="#263238" stroke-linecap="round" stroke-linejoin="round"/>
<path d="M66.3154 208.752L38.3027 213.922" stroke="#263238" stroke-linecap="round" stroke-linejoin="round"/>
<path d="M62.1614 204.1L53.9766 205.307" stroke="#263238" stroke-linecap="round" stroke-linejoin="round"/>
<path d="M63.4095 194.633L21.5986 202.477" stroke="#263238" stroke-linecap="round" stroke-linejoin="round"/>
<path d="M8.22998 189.279L65.4625 179.177" stroke="#263238" stroke-linecap="round" stroke-linejoin="round" stroke-dasharray="1 2"/>
<path d="M69.0434 224.876L34.2783 232.161" stroke="#263238" stroke-linecap="round" stroke-linejoin="round"/>
<path d="M68.0065 221.943L51.6641 224.876" stroke="#263238" stroke-linecap="round" stroke-linejoin="round"/>
<path d="M59.1669 173.066L30.4995 178.748" stroke="#263238" stroke-linecap="round" stroke-linejoin="round"/>
<path d="M56.9024 166.702L47.7695 168.496" stroke="#263238" stroke-linecap="round" stroke-linejoin="round"/>
<path d="M56.3638 162.282L14.6074 170.331" stroke="#263238" stroke-linecap="round" stroke-linejoin="round"/>
<path d="M52.5715 140.77L41.2969 143.102" stroke="#263238" stroke-linecap="round" stroke-linejoin="round"/>
<path d="M14.6072 148.784L4.88086 150.674" stroke="#263238" stroke-linecap="round" stroke-linejoin="round"/>
<path d="M8.4209 156.034C8.62373 155.343 8.97211 154.703 9.44267 154.157C9.91322 153.611 10.4951 153.172 11.1492 152.87" stroke="#263238" stroke-linecap="round" stroke-linejoin="round"/>
<path d="M12.7454 162.282C11.5376 162.139 10.4212 161.568 9.59893 160.672C8.77666 159.776 8.30306 158.614 8.26416 157.399" stroke="#263238" stroke-linecap="round" stroke-linejoin="round"/>
<path d="M16.5374 161.123C15.8451 161.746 14.9834 162.149 14.0615 162.282" stroke="#263238" stroke-linecap="round" stroke-linejoin="round"/>
<path d="M13.2227 152.406C14.1008 152.435 14.9566 152.69 15.7067 153.148C16.4567 153.606 17.0755 154.25 17.5026 155.018C17.9298 155.785 18.1509 156.651 18.1443 157.529C18.1377 158.408 17.9038 159.27 17.4651 160.031" stroke="#263238" stroke-linecap="round" stroke-linejoin="round"/>
<path d="M23.1672 153.688C22.2601 153.402 21.3598 153.074 20.439 152.87" stroke="#263238" stroke-linecap="round" stroke-linejoin="round"/>
<path d="M30.9019 154.343C30.1311 156.178 25.8204 154.507 24.5654 154.125" stroke="#263238" stroke-linecap="round" stroke-linejoin="round"/>
<path d="M23.522 149.473L31.584 151.369C31.4544 151.908 31.3521 152.454 31.2498 152.993" stroke="#263238" stroke-linecap="round" stroke-linejoin="round"/>
<path d="M19.5317 151.369C20.3911 149.323 20.0501 148.641 22.1918 149.139" stroke="#263238" stroke-linecap="round" stroke-linejoin="round"/>
<path d="M117.907 296.152L128.581 299.426L120.649 290.082C124.997 285.247 127.487 279.025 127.674 272.525" stroke="#263238" stroke-linecap="round" stroke-linejoin="round"/>
<path d="M104.955 300.272C108.532 299.131 111.909 297.434 114.961 295.245" stroke="#263238" stroke-linecap="round" stroke-linejoin="round"/>
<path d="M63.7642 280.424C66.9085 295.573 83.6465 304.903 101.155 301.275" stroke="#263238" stroke-linecap="round" stroke-linejoin="round"/>
<path d="M66.315 263.345C65.643 264.621 65.0729 265.949 64.6099 267.315" stroke="#263238" stroke-linecap="round" stroke-linejoin="round"/>
<path d="M127.162 267.274C124.025 252.125 107.28 242.794 89.778 246.429C81.8304 247.99 74.668 252.253 69.5068 258.495" stroke="#263238" stroke-linecap="round" stroke-linejoin="round"/>
<path d="M108.59 261.721C103.549 256.231 96.6808 260.037 93.8229 265.609C89.103 261.517 81.307 260.514 78.6742 267.492C74.2271 279.244 89.4372 286.412 96.4762 289.004C97.2742 289.304 97.929 289.557 98.4747 289.741C98.918 289.366 99.4364 288.888 100.064 288.315C105.63 283.288 117.088 270.984 108.59 261.721Z" stroke="#263238" stroke-linecap="round" stroke-linejoin="round"/>
<path d="M150.503 38.1457L140.196 33.8555L147.188 43.9228C142.409 48.3155 139.345 54.2612 138.539 60.7017" stroke="#263238" stroke-linecap="round" stroke-linejoin="round"/>
<path d="M163.776 35.2739C160.107 36.0694 156.584 37.4317 153.333 39.3118" stroke="#263238" stroke-linecap="round" stroke-linejoin="round"/>
<path d="M202.879 58.9965C201.208 43.6021 185.445 32.689 167.67 34.6466" stroke="#263238" stroke-linecap="round" stroke-linejoin="round"/>
<path d="M198.698 75.7481C199.478 74.5415 200.162 73.2758 200.744 71.9626" stroke="#263238" stroke-linecap="round" stroke-linejoin="round"/>
<path d="M138.539 65.9807C140.21 81.3614 155.973 92.2609 173.748 90.3306C181.807 89.5388 189.344 85.9844 195.083 80.2701" stroke="#263238" stroke-linecap="round" stroke-linejoin="round"/>
<path d="M178.184 75.3933C186.065 71.1747 189.034 61.366 184.816 53.4851C180.597 45.6041 170.788 42.6353 162.907 46.8539C155.026 51.0726 152.058 60.8812 156.276 68.7621C160.495 76.6431 170.303 79.6119 178.184 75.3933Z" stroke="#263238" stroke-linecap="round" stroke-linejoin="round"/>
<path d="M164.396 63.1705L169.239 67.7404L177.315 53.833" stroke="#263238" stroke-linecap="round" stroke-linejoin="round"/>
<path opacity="0.2" d="M190.779 215.286C190.779 215.286 188.351 244.669 191.864 251.797C195.376 258.925 197.136 307.625 195.56 313.75C195.56 313.75 206.869 316.601 211.343 312.549C215.818 308.498 222.7 312.399 234.036 308.457C245.372 304.514 237.194 217.012 237.194 217.012L237.542 185.179L218.846 168.523L190.779 215.286Z" fill="black" fill-opacity="0.7"/>
<path d="M205.853 229.418C205.783 229.628 205.669 229.821 205.519 229.985C203.104 232.269 192.798 234.807 183.945 236.635C176.613 238.156 170.304 239.186 170.304 239.186C170.304 239.186 165.447 198.828 165.447 194.585C165.447 190.343 157.617 121.658 157.617 121.658L176.388 120.846L201.29 119.769C201.29 119.769 201.44 121.604 201.693 124.809C203.336 145.23 208.984 221.363 205.853 229.418Z" fill="#C53F3F"/>
<mask id="mask0_131_440" style="mask-type:luminance" maskUnits="userSpaceOnUse" x="157" y="119" width="50" height="121">
<path d="M205.853 229.418C205.783 229.628 205.669 229.821 205.519 229.985C203.104 232.269 192.798 234.807 183.945 236.635C176.613 238.156 170.304 239.186 170.304 239.186C170.304 239.186 165.447 198.828 165.447 194.585C165.447 190.343 157.617 121.658 157.617 121.658L176.388 120.846L201.29 119.769C201.29 119.769 201.44 121.604 201.693 124.809C203.336 145.23 208.984 221.363 205.853 229.418Z" fill="white"/>
</mask>
<g mask="url(#mask0_131_440)">
<path opacity="0.2" d="M205.853 229.419L183.945 233.9L175.671 235.598C173.427 233.395 171.715 233.354 171.715 233.354L171.033 227.181L169.962 217.08L160.536 128.206C162.582 126.794 163.592 123.704 163.592 123.704L176.21 123.247L198.07 122.449L201.679 124.782C203.336 145.231 208.984 221.363 205.853 229.419Z" fill="black" fill-opacity="0.7"/>
<path d="M205.853 229.419L183.945 233.9L175.671 235.598C173.427 233.395 171.715 233.354 171.715 233.354L171.033 227.181L169.962 217.08L160.536 128.206C162.582 126.794 163.592 123.704 163.592 123.704L176.21 123.247L198.07 122.449L201.679 124.782C203.336 145.231 208.984 221.363 205.853 229.419Z" stroke="#263238" stroke-linecap="round" stroke-linejoin="round"/>
<path d="M172.875 203.254L180.186 203.24L180.193 205.525L178.161 206.248L173.475 206.76L172.875 203.254Z" fill="#C53F3F" stroke="#263238" stroke-linecap="round" stroke-linejoin="round"/>
<path d="M173.325 207.961L178.699 207.776L180.077 208.431L180.009 211.466L173.734 211.535L173.325 207.961Z" fill="#C53F3F" stroke="#263238" stroke-linecap="round" stroke-linejoin="round"/>
<path d="M174.185 212.81L180.323 212.367L180.255 214.665L177.288 215.716L174.15 215.538L174.185 212.81Z" fill="#C53F3F" stroke="#263238" stroke-linecap="round" stroke-linejoin="round"/>
<path d="M174.553 216.684L179.511 216.936L179.961 218.205L179.238 219.603L174.805 219.89L174.041 217.728L174.553 216.684Z" fill="#C53F3F" stroke="#263238" stroke-linecap="round" stroke-linejoin="round"/>
<path d="M180.269 221.125L180.951 223.109C181.059 223.32 181.116 223.554 181.116 223.791C181.116 224.029 181.059 224.263 180.951 224.473C180.824 224.618 180.662 224.728 180.48 224.793C180.299 224.857 180.104 224.874 179.914 224.842C179.532 224.808 179.157 224.678 178.775 224.658C177.622 224.61 176.565 225.558 175.433 225.34C174.989 224.112 173.871 222.311 175.385 221.759C175.665 221.67 180.432 221.575 180.269 221.125Z" fill="#C53F3F" stroke="#263238" stroke-linecap="round" stroke-linejoin="round"/>
<path d="M180.248 226.711C180.356 227.183 180.433 227.661 180.48 228.143C180.549 228.448 180.539 228.765 180.451 229.065C180.362 229.365 180.198 229.637 179.975 229.855C179.684 230.015 179.359 230.101 179.027 230.107L175.085 230.462C175.027 229.718 175.016 228.971 175.05 228.225C175.282 227.338 175.119 227.413 175.958 227.052C177.288 226.486 178.884 227.386 180.248 226.711Z" fill="#C53F3F" stroke="#263238" stroke-linecap="round" stroke-linejoin="round"/>
<path d="M165.911 130.225C165.911 130.225 167.398 144.596 167.466 147.44" stroke="#263238" stroke-linecap="round" stroke-linejoin="round"/>
<path d="M169.117 130.382L169.812 138.301" stroke="#263238" stroke-linecap="round" stroke-linejoin="round"/>
<path d="M180.228 127.387L181.128 136.67L182.39 136.793L181.98 127.476L180.228 127.387Z" fill="#C53F3F" stroke="#263238" stroke-linecap="round" stroke-linejoin="round"/>
<path opacity="0.2" d="M205.853 229.418C205.782 229.628 205.669 229.821 205.519 229.985C203.104 232.269 192.798 234.807 183.945 236.635V230.496L171.061 227.195L169.117 226.697L169.99 217.093L173.325 180.398L176.238 123.275L176.36 120.846L201.29 119.769C201.29 119.769 201.44 121.604 201.692 124.809C203.336 145.23 208.984 221.363 205.853 229.418Z" fill="black" fill-opacity="0.7"/>
</g>
<path d="M205.853 229.418C205.783 229.628 205.669 229.821 205.519 229.985C203.104 232.269 192.798 234.807 183.945 236.635C176.613 238.156 170.304 239.186 170.304 239.186C170.304 239.186 165.447 198.828 165.447 194.585C165.447 190.343 157.617 121.658 157.617 121.658L176.388 120.846L201.29 119.769C201.29 119.769 201.44 121.604 201.693 124.809C203.336 145.23 208.984 221.363 205.853 229.418Z" stroke="#263238" stroke-linecap="round" stroke-linejoin="round"/>
<path d="M219.064 321C219.221 319.561 216.957 298.914 216.916 296.67C216.807 290.532 215.068 282.477 215.068 282.477C212.639 276.27 210.75 261.967 204.27 252.793C197.791 243.619 197.798 232.829 196.72 223.669C195.642 214.508 195.908 215.3 196.181 207.169C196.378 201.062 196.107 194.949 195.369 188.883C194.831 183.481 193.753 173.98 195.369 169.553C196.986 165.126 201.215 164.097 205.846 168.53C210.477 172.963 212.367 191.141 212.367 193.385C212.367 195.629 212.367 202.64 213.99 205.341C213.99 205.341 223.164 200.649 223.164 199.353C223.164 198.057 222.891 186.605 224.241 185.991L218.846 168.53L229.077 164.895C231.003 166.622 232.667 168.621 234.015 170.829C235.17 172.656 236.137 174.597 236.901 176.619C241.218 188.071 248.155 196.058 249.587 199.353C251.019 202.647 249.587 228.811 249.587 233.674C249.587 238.538 246.45 260.957 246.531 264.729C246.593 267.457 248.434 277.607 250.269 285.389C250.951 288.39 255.091 310.135 255.726 311.86L219.064 321Z" fill="white"/>
<path opacity="0.4" d="M227.14 184.838C227.072 186.305 228.825 197.995 228.825 197.995C230.039 200.908 223.409 210.839 223.409 210.839C221.977 211.644 221.363 216.636 221.363 216.636C216.875 215.641 206.596 205.307 206.596 205.307C206.596 205.307 205.382 209.543 204.018 220.026C202.654 230.51 211.303 255.412 214.986 272.607C218.669 289.802 216.916 296.65 216.916 296.65C216.807 290.511 215.068 282.456 215.068 282.456C212.639 276.249 210.75 261.946 204.27 252.772C197.791 243.599 197.798 232.829 196.72 223.669C195.642 214.508 195.908 215.3 196.181 207.169C196.378 201.062 196.107 194.949 195.369 188.883C194.831 183.481 193.753 173.98 195.369 169.553C196.986 165.126 201.215 164.097 205.846 168.53C210.477 172.963 212.367 191.141 212.367 193.385C212.367 195.629 212.367 202.64 213.99 205.341C213.99 205.341 223.164 200.649 223.164 199.353C223.164 198.057 222.891 186.605 224.241 185.991L218.846 168.53L229.077 164.895C231.003 166.622 232.667 168.621 234.015 170.829C230.707 177.445 227.208 183.924 227.14 184.838Z" fill="#C53F3F"/>
<path opacity="0.4" d="M244.343 266.537C244.793 262.444 246.136 252.718 246.989 246.647C245.945 251.388 244.261 253.789 244.261 253.789C244.261 253.789 247.166 219.003 247.453 216.882C247.739 214.761 250.672 205.225 249.595 199.319C251.027 202.606 249.595 228.777 249.595 233.64C249.595 238.504 246.457 260.923 246.539 264.695C246.6 267.423 249.526 284.809 251.361 292.592C247.419 286.862 243.892 270.65 244.343 266.537Z" fill="#C53F3F"/>
<path d="M255.712 311.826C253.557 305.619 246.634 268.447 246.552 264.695C246.47 260.944 249.608 238.497 249.608 233.641C249.608 228.784 251.04 202.606 249.608 199.319C248.175 196.031 241.239 188.037 236.921 176.585C235.289 172.107 232.606 168.086 229.098 164.861L218.867 168.496L224.262 185.957C222.898 186.571 223.184 198.023 223.184 199.319C223.184 200.615 214.01 205.307 214.01 205.307C212.387 202.579 212.387 195.595 212.387 193.351C212.387 191.107 210.498 172.923 205.866 168.496C201.235 164.069 197 165.086 195.39 169.519C193.78 173.953 194.851 183.447 195.39 188.849C196.128 194.922 196.399 201.042 196.202 207.156C195.929 215.286 195.656 214.481 196.74 223.655C197.825 232.829 197.818 243.619 204.291 252.793C210.764 261.967 212.66 276.27 215.088 282.477C215.088 282.477 219.672 315.605 219.085 321" stroke="#263238" stroke-linecap="round" stroke-linejoin="round"/>
<path d="M213.99 205.307C213.99 205.307 215.607 212.858 219.249 216.636" stroke="#263238" stroke-linecap="round" stroke-linejoin="round"/>
<path d="M214.972 208.752C214.972 208.752 221.793 210.839 224.644 210.968" stroke="#263238" stroke-linecap="round" stroke-linejoin="round"/>
<path d="M223.164 199.319C223.164 199.319 228.02 197.075 231.124 198.425" stroke="#263238" stroke-linecap="round" stroke-linejoin="round"/>
<path d="M224.241 185.957C224.241 185.957 228.02 185.609 228.825 183.72" stroke="#263238" stroke-linecap="round" stroke-linejoin="round"/>
<path d="M205.519 254.716C205.519 254.716 212.776 263.726 214.932 268.31" stroke="#263238" stroke-linecap="round" stroke-linejoin="round"/>
<path d="M247.719 215.286C246.504 222.441 244.881 242.003 244.342 245.508" stroke="#263238" stroke-linecap="round" stroke-linejoin="round"/>
<path d="M250.037 201.794C250.242 208.274 248.673 211.644 248.673 211.644" stroke="#263238" stroke-linecap="round" stroke-linejoin="round"/>
<path d="M194.251 111.127L244.261 124.318C244.261 124.318 226.684 177.663 223.116 184.279L217.155 230.783C217.155 230.783 185.207 229.377 170.515 224.937C170.515 224.937 179.805 176.51 180.303 170.051C180.801 163.592 194.251 111.127 194.251 111.127Z" fill="#C53F3F"/>
<mask id="mask1_131_440" style="mask-type:luminance" maskUnits="userSpaceOnUse" x="170" y="111" width="75" height="120">
<path d="M194.251 111.127L244.261 124.318C244.261 124.318 226.684 177.663 223.116 184.279L217.155 230.783C217.155 230.783 185.207 229.377 170.515 224.937C170.515 224.937 179.805 176.51 180.303 170.051C180.801 163.592 194.251 111.127 194.251 111.127Z" fill="white"/>
</mask>
<g mask="url(#mask1_131_440)">
<path opacity="0.2" d="M183.495 167.186L194.517 120.062C194.517 120.062 199.258 117.709 201.092 115.561L236.921 125.751C236.921 125.751 237.031 129.263 239.084 131.514L221.002 183.617L216.616 222.025C216.616 222.025 210.784 222.489 210.225 226.799C210.225 226.799 191.318 227.822 178.639 224.48C178.639 224.48 177.145 219.822 174.86 216.875L183.495 167.186Z" fill="black" fill-opacity="0.7"/>
<path d="M183.495 167.186L194.517 120.062C194.517 120.062 199.258 117.709 201.092 115.561L236.921 125.751C236.921 125.751 237.031 129.263 239.084 131.514L221.002 183.617L216.616 222.025C216.616 222.025 210.784 222.489 210.225 226.799C210.225 226.799 191.318 227.822 178.639 224.48C178.639 224.48 177.145 219.822 174.86 216.875L183.495 167.186Z" stroke="#263238" stroke-linecap="round" stroke-linejoin="round"/>
<path d="M192.668 169.635C192.668 169.635 195.922 157.358 207.381 159.561C218.839 161.764 212.367 176.892 212.367 176.892C212.367 176.892 212.435 189.101 203.138 187.417C195.076 185.957 190.779 181.53 192.668 169.635Z" fill="#C53F3F" stroke="#263238" stroke-linecap="round" stroke-linejoin="round"/>
<path d="M198.876 124.543C198.876 124.543 195.411 138.573 194.517 141.274" stroke="#263238" stroke-linecap="round" stroke-linejoin="round"/>
<path d="M201.843 125.757L199.824 133.451" stroke="#263238" stroke-linecap="round" stroke-linejoin="round"/>
<path d="M227.141 131.153L234.036 133.581L233.279 135.743H231.124L226.534 134.665L227.141 131.153Z" fill="#C53F3F" stroke="#263238" stroke-linecap="round" stroke-linejoin="round"/>
<path d="M225.994 135.743L231.123 137.359L232.201 138.437L231.123 141.275L225.183 139.249L225.994 135.743Z" fill="#C53F3F" stroke="#263238" stroke-linecap="round" stroke-linejoin="round"/>
<path d="M225.183 140.599L231.124 142.236L230.285 144.378H227.14L224.242 143.164L225.183 140.599Z" fill="#C53F3F" stroke="#263238" stroke-linecap="round" stroke-linejoin="round"/>
<path d="M224.242 144.378L228.825 146.267V147.611L227.679 148.695L223.41 147.481V145.183L224.242 144.378Z" fill="#C53F3F" stroke="#263238" stroke-linecap="round" stroke-linejoin="round"/>
<path d="M228.15 150.469V152.57C228.185 152.801 228.166 153.037 228.094 153.26C228.022 153.483 227.898 153.685 227.734 153.852C227.564 153.944 227.374 153.993 227.181 153.993C226.988 153.993 226.798 153.944 226.629 153.852C226.281 153.688 225.947 153.443 225.619 153.299C224.548 152.87 223.232 153.409 222.209 152.836C222.209 151.533 221.752 149.466 223.362 149.425C223.628 149.446 228.15 150.946 228.15 150.469Z" fill="#C53F3F" stroke="#263238" stroke-linecap="round" stroke-linejoin="round"/>
<path d="M226.261 155.728C226.209 156.209 226.123 156.685 226.002 157.153C225.852 157.76 225.558 158.436 224.951 158.599C224.624 158.654 224.289 158.625 223.976 158.517L220.143 157.508C220.328 156.79 220.556 156.084 220.825 155.393C221.343 154.636 221.166 154.65 222.073 154.589C223.546 154.527 224.747 155.912 226.261 155.728Z" fill="#C53F3F" stroke="#263238" stroke-linecap="round" stroke-linejoin="round"/>
<path d="M213.315 126.706L211.016 135.743L212.162 136.282L214.931 127.374L213.315 126.706Z" fill="#C53F3F" stroke="#263238" stroke-linecap="round" stroke-linejoin="round"/>
<path d="M184.511 187.396L191.591 189.231L191.018 191.441L188.869 191.632L184.204 190.943L184.511 187.396Z" fill="#C53F3F" stroke="#263238" stroke-linecap="round" stroke-linejoin="round"/>
<path d="M183.761 192.068L189.006 193.242L190.179 194.224L189.347 197.143L183.256 195.629L183.761 192.068Z" fill="#C53F3F" stroke="#263238" stroke-linecap="round" stroke-linejoin="round"/>
<path d="M183.372 196.979L189.429 198.098L188.774 200.301L185.643 200.574L182.649 199.612L183.372 196.979Z" fill="#C53F3F" stroke="#263238" stroke-linecap="round" stroke-linejoin="round"/>
<path d="M182.751 200.819L187.485 202.313L187.601 203.657L186.55 204.83L182.192 203.984L181.994 201.699L182.751 200.819Z" fill="#C53F3F" stroke="#263238" stroke-linecap="round" stroke-linejoin="round"/>
<path d="M187.165 206.555L187.349 208.649C187.405 208.877 187.406 209.116 187.353 209.344C187.299 209.573 187.193 209.786 187.042 209.966C186.881 210.072 186.696 210.136 186.504 210.152C186.312 210.167 186.119 210.134 185.944 210.054C185.582 209.925 185.262 209.707 184.887 209.597C183.788 209.256 182.52 209.904 181.476 209.42C181.353 208.124 180.733 206.105 182.329 205.948C182.574 205.935 187.206 207.033 187.165 206.555Z" fill="#C53F3F" stroke="#263238" stroke-linecap="round" stroke-linejoin="round"/>
<path d="M185.739 211.958C185.729 212.454 185.683 212.948 185.602 213.438C185.5 214.052 185.268 214.754 184.681 214.966C184.359 215.048 184.022 215.048 183.699 214.966L179.798 214.284C179.929 213.551 180.105 212.826 180.323 212.115C180.773 211.317 180.596 211.344 181.496 211.207C182.929 210.996 184.238 212.271 185.739 211.958Z" fill="#C53F3F" stroke="#263238" stroke-linecap="round" stroke-linejoin="round"/>
<path d="M213.99 218.58C213.99 218.58 215.614 200.478 215.614 198.657" stroke="#263238" stroke-linecap="round" stroke-linejoin="round"/>
<path d="M210.75 217.769C210.75 217.769 211.433 208.356 211.555 206.719" stroke="#263238" stroke-linecap="round" stroke-linejoin="round"/>
<path d="M198.098 210.969L195.909 221.684H198.098L199.687 210.969H198.098Z" fill="#C53F3F" stroke="#263238" stroke-linecap="round" stroke-linejoin="round"/>
<path opacity="0.2" d="M223.232 184.013C218.499 183.024 214.277 181.571 211.153 179.477C211.153 179.477 213.417 185.984 221.445 197.075L217.128 230.783C217.128 230.783 196.277 229.869 180.521 227.175C185.364 213.533 194.162 187.683 193.119 182.56C191.707 175.528 196.693 167.227 196.693 167.227C212.456 164.39 227.741 152.474 238.231 142.4C232.89 158.19 225.599 179.334 223.232 184.013Z" fill="black" fill-opacity="0.7"/>
</g>
<path d="M194.251 111.127L244.261 124.318C244.261 124.318 226.684 177.663 223.116 184.279L217.155 230.783C217.155 230.783 185.207 229.377 170.515 224.937C170.515 224.937 179.805 176.51 180.303 170.051C180.801 163.592 194.251 111.127 194.251 111.127Z" stroke="#263238" stroke-linecap="round" stroke-linejoin="round"/>
<path d="M221.977 217.318L214.931 268.31C213.362 264.975 209.086 259.286 206.876 256.442C206.057 255.378 205.512 254.716 205.512 254.716L204.264 252.793C197.791 243.619 197.791 232.829 196.713 223.655C195.635 214.481 195.901 215.286 196.174 207.156C196.373 201.053 196.104 194.944 195.369 188.883C194.831 183.481 193.753 173.98 195.369 169.553C196.161 167.384 197.586 166.034 199.373 165.747C201.16 165.461 203.466 166.279 205.846 168.53C210.477 172.957 212.367 191.141 212.367 193.385C212.367 195.629 212.367 202.64 213.99 205.341C213.99 205.307 218.341 213.54 221.977 217.318Z" fill="white"/>
<path opacity="0.4" d="M203.732 249.158C205.205 251.04 206.207 253.755 206.876 256.442C206.057 255.378 205.512 254.717 205.512 254.717L204.264 252.793C197.791 243.619 197.791 232.829 196.713 223.655C195.635 214.481 195.901 215.286 196.174 207.156C196.373 201.053 196.104 194.945 195.369 188.883C194.831 183.481 193.753 173.98 195.369 169.553C196.161 167.384 197.586 166.034 199.373 165.747C202.783 166.716 206.194 170.188 207.381 176.128C209.427 186.1 200.198 178.045 198.064 186.496C195.929 194.947 199.032 197.225 200.308 199.353C201.583 201.481 199.953 206.174 198.064 212.476C196.174 218.778 199.687 243.981 203.732 249.158Z" fill="#C53F3F"/>
<path d="M221.977 217.319C218.335 213.54 213.99 205.307 213.99 205.307C212.367 202.579 212.367 195.595 212.367 193.351C212.367 191.107 210.478 172.923 205.846 168.496C201.215 164.069 196.98 165.086 195.37 169.519C193.76 173.953 194.831 183.447 195.37 188.849C196.108 194.921 196.379 201.042 196.182 207.156C195.909 215.286 195.636 214.481 196.72 223.655C197.805 232.829 197.798 243.619 204.271 252.793L205.519 254.716C205.519 254.716 212.776 263.727 214.932 268.31" stroke="#263238" stroke-linecap="round" stroke-linejoin="round"/>
<path d="M198.098 195.738C198.098 195.738 204.285 192.539 207.381 192.812" stroke="#263238" stroke-linecap="round" stroke-linejoin="round"/>
<path opacity="0.2" d="M103.624 108.269C103.624 108.269 87.9774 91.04 86.8997 89.9827C85.8221 88.9255 85.0104 70.5506 82.0366 62.4612C79.0628 54.3719 77.6236 6.87251 77.6236 6.87251C77.6236 6.87251 74.793 3.36667 66.8128 5.25601C58.8326 7.14534 51.0092 3.63268 42.1082 8.76185C33.2072 13.891 50.4704 87.2545 50.4704 87.2545L67.9928 143.096L103.624 108.269Z" fill="black" fill-opacity="0.7"/>
<path d="M114.374 108.399C114.374 108.399 107.362 153.19 100.05 159.124C95.828 162.535 89.2461 164.103 83.4075 163.899C79.1787 163.749 75.3318 162.685 73.0673 160.754C67.6722 156.164 60.108 153.736 56.343 150.769C52.578 147.802 52.5643 137.278 50.1362 128.37C47.708 119.462 44.1953 119.196 43.3905 110.295C42.5856 101.394 39.339 74.1452 33.4732 66.581C27.6074 59.0169 27.471 53.0897 25.0428 45.3959C22.6146 37.7022 4.85352 9.86691 4.85352 9.86691L48.1513 1C48.1513 1 52.4074 18.6179 56.9637 32.9891C59.1258 39.8098 61.3562 45.9075 63.2251 49.0314C66.8136 55.0738 69.9221 61.3887 72.5217 67.9179C77.419 73.0471 80.0995 84.4104 80.9112 94.3618L92.5063 100.828C101.421 103.263 114.374 108.399 114.374 108.399Z" fill="white"/>
<path opacity="0.4" d="M114.374 108.399C114.374 108.399 107.362 153.19 100.05 159.124C95.8282 162.535 89.2462 164.103 83.4077 163.899C69.5617 160.488 65.8376 152.767 63.9619 150.898C61.4655 148.409 58.1848 133.24 59.9854 124.414C61.7861 115.588 60.4902 112.321 59.0032 108.01C55.7088 98.4609 65.7557 93.3181 66.7925 89.7032C67.8292 86.0882 67.4745 65.8716 62.9524 59.2965C60.5515 55.7975 54.3652 37.7635 56.9707 33.0027C59.1328 39.8234 61.3632 45.9211 63.2321 49.045C66.8206 55.0874 69.9291 61.4023 72.5287 67.9315C77.426 73.0607 80.1065 84.4239 80.9182 94.3753L92.5133 100.841C101.421 103.263 114.374 108.399 114.374 108.399Z" fill="#C53F3F"/>
<path d="M61.4995 105.248C61.4995 105.248 59.0577 108.119 56.9023 108.119" stroke="#263238" stroke-linecap="round" stroke-linejoin="round"/>
<path d="M66.8129 114.953C66.8129 114.953 64.1869 120.533 59.9922 121.774" stroke="#263238" stroke-linecap="round" stroke-linejoin="round"/>
<path d="M62.1475 147.652C62.1475 147.652 68.0883 145.087 69.0295 140.77" stroke="#263238" stroke-linecap="round" stroke-linejoin="round"/>
<path d="M92.5201 100.835C92.5201 100.835 91.0332 102.724 91.0332 104.245" stroke="#263238" stroke-linecap="round" stroke-linejoin="round"/>
<path d="M48.1786 1C48.1786 1 57.4411 39.3119 63.2524 49.0587C66.8409 55.1011 69.9493 61.416 72.549 67.9452C77.4462 73.0743 80.1268 84.4445 80.9384 94.3959L92.5336 100.862C101.435 103.29 114.36 108.419 114.36 108.419C114.36 108.419 107.348 153.211 100.036 159.145C92.7246 165.079 78.5171 165.324 73.0605 160.741C67.604 156.157 60.1012 153.722 56.3362 150.755C52.5711 147.788 52.5575 137.264 50.1293 128.356C47.7012 119.448 44.1885 119.182 43.3837 110.281C42.5788 101.38 39.3322 74.1316 33.4664 66.5674C27.6006 59.0032 27.4641 53.076 25.036 45.3823C22.6078 37.6885 4.85352 9.86691 4.85352 9.86691" stroke="#263238" stroke-linecap="round" stroke-linejoin="round"/>
<path d="M130.778 105.493L59.167 215.723L76.0687 217.605L127.422 219.74L132.681 121.692L130.778 105.493Z" fill="#263238" stroke="#263238" stroke-linecap="round" stroke-linejoin="round"/>
<path d="M130.778 105.486L124.161 217.857L59.167 215.723L64.2962 129.618L65.8922 102.881L94.2118 104.02L130.778 105.486Z" fill="#757575"/>
<mask id="mask2_131_440" style="mask-type:luminance" maskUnits="userSpaceOnUse" x="59" y="102" width="72" height="116">
<path d="M130.778 105.486L124.161 217.857L59.167 215.723L64.2962 129.618L65.8922 102.881L94.2118 104.02L130.778 105.486Z" fill="white"/>
</mask>
<g mask="url(#mask2_131_440)">
<path d="M114.435 204.919C118.805 204.919 122.347 201.376 122.347 197.006C122.347 192.637 118.805 189.094 114.435 189.094C110.066 189.094 106.523 192.637 106.523 197.006C106.523 201.376 110.066 204.919 114.435 204.919Z" fill="#BFBFBF" stroke="#263238" stroke-miterlimit="10"/>
<path d="M112.205 191.754L117.566 192.457" stroke="#263238" stroke-linecap="round" stroke-linejoin="round"/>
<path d="M110.766 193.057L118.821 193.842" stroke="#263238" stroke-linecap="round" stroke-linejoin="round"/>
<path d="M109.872 200.997L117.934 201.781" stroke="#263238" stroke-linecap="round" stroke-linejoin="round"/>
<path d="M113.398 194.851C113.62 194.906 113.854 194.874 114.052 194.761C114.25 194.648 114.397 194.463 114.462 194.244L115.063 194.306L114.456 200.001L113.562 199.905L114.026 195.561L113.344 195.486L113.398 194.851Z" fill="#263238"/>
<path d="M116.379 195.09C116.734 195.09 116.897 195.356 116.856 195.731V195.799L116.508 195.765V195.704C116.508 195.54 116.468 195.465 116.352 195.451C116.236 195.438 116.161 195.499 116.147 195.663C116.133 195.827 116.188 195.97 116.406 196.202C116.517 196.296 116.604 196.414 116.66 196.548C116.715 196.682 116.738 196.828 116.727 196.972C116.686 197.348 116.481 197.539 116.12 197.498C115.758 197.457 115.601 197.225 115.635 196.857V196.713L115.976 196.747V196.918C115.976 197.082 116.024 197.15 116.14 197.163C116.256 197.177 116.338 197.123 116.352 196.959C116.365 196.795 116.311 196.652 116.092 196.42C115.982 196.326 115.895 196.207 115.839 196.073C115.783 195.939 115.76 195.794 115.772 195.649C115.82 195.24 116.031 195.022 116.379 195.09Z" fill="#263238"/>
<path d="M117.02 195.186L118.152 195.302L118.111 195.636L117.729 195.595L117.518 197.586L117.156 197.552L117.368 195.554L116.986 195.513L117.02 195.186Z" fill="#263238"/>
<path d="M97.8461 110.475L85.158 107.706C84.8305 107.634 84.507 107.842 84.4355 108.17L82.7094 116.08C82.6379 116.407 82.8455 116.731 83.1731 116.802L95.8611 119.571C96.1887 119.642 96.5121 119.435 96.5836 119.107L98.3097 111.197C98.3812 110.87 98.1736 110.546 97.8461 110.475Z" fill="white" stroke="#263238" stroke-linecap="round" stroke-linejoin="round"/>
<path d="M87.3843 115.506L87.3366 115.458C87.3366 115.458 87.3366 115.376 87.3025 115.342C87.27 115.312 87.2444 115.274 87.2275 115.233C87.2245 115.22 87.2245 115.206 87.2275 115.192C87.2275 115.192 87.2616 115.192 87.282 115.144C87.2988 115.134 87.3131 115.12 87.3237 115.104C87.3344 115.087 87.3411 115.068 87.3434 115.049C87.3408 115.038 87.3408 115.026 87.3434 115.015H87.3843C87.3843 114.885 87.3025 114.79 87.2206 114.687C87.0228 114.442 86.9819 114.319 87.0228 114.155C87.0638 113.992 87.132 113.944 87.2479 113.964C87.3639 113.985 87.4116 114.067 87.3775 114.23V114.326L87.7186 114.401V114.326C87.7646 114.205 87.7627 114.072 87.7133 113.952C87.6638 113.833 87.5705 113.737 87.4526 113.685L87.4935 113.521L87.2002 113.453L87.1661 113.623C86.9001 113.623 86.7296 113.794 86.6614 114.101C86.6353 114.238 86.6448 114.38 86.689 114.512C86.7332 114.645 86.8105 114.764 86.9137 114.858C87.1115 115.097 87.1524 115.233 87.1115 115.39C87.0706 115.547 86.9956 115.601 86.8796 115.574C86.7637 115.547 86.7091 115.472 86.7432 115.315L86.7841 115.131L86.4431 115.056V115.213C86.4149 115.275 86.3995 115.342 86.3976 115.41C86.3958 115.478 86.4076 115.546 86.4324 115.61C86.4572 115.673 86.4945 115.731 86.542 115.78C86.5895 115.829 86.6463 115.868 86.7091 115.895V116.058L87.0024 116.127L87.0365 115.956H87.2138C87.2675 115.937 87.3164 115.907 87.3571 115.867C87.3987 115.826 87.4332 115.777 87.4594 115.724C87.3843 115.547 87.3843 115.526 87.3843 115.506Z" fill="#263238"/>
<path d="M89.2597 115.397C89.2567 115.342 89.2428 115.289 89.2188 115.24C89.2122 115.213 89.2122 115.185 89.2188 115.158C89.2293 115.138 89.246 115.121 89.2666 115.11C89.4507 114.947 89.2256 114.729 89.0483 114.688C88.987 114.672 88.9228 114.673 88.8619 114.69C88.801 114.707 88.7454 114.739 88.7004 114.783L88.8437 114.251L89.4712 114.387L89.5394 114.06L88.5981 113.855C88.5782 113.901 88.5645 113.949 88.5572 113.999C88.5572 114.046 88.6186 114.06 88.6186 114.115C88.6186 114.169 88.6186 114.162 88.6186 114.19C88.631 114.23 88.6577 114.264 88.6936 114.285C88.7277 114.285 88.7618 114.347 88.755 114.387C88.7597 114.401 88.7597 114.415 88.755 114.428C88.7292 114.491 88.6837 114.544 88.6254 114.578C88.5986 114.584 88.5744 114.598 88.5572 114.619V114.66C88.5572 114.708 88.5026 114.735 88.4617 114.763C88.4208 114.79 88.3185 115.008 88.2776 115.158L88.6186 115.233V115.165C88.6527 115.001 88.7414 114.96 88.8505 114.981C88.9596 115.001 89.0278 115.083 88.9869 115.247L88.8778 115.752C88.8778 115.908 88.7618 115.956 88.6459 115.929C88.5299 115.902 88.4754 115.833 88.5095 115.67L88.5572 115.458L88.2162 115.383L88.1752 115.574C88.1488 115.648 88.1385 115.727 88.1449 115.805C88.1514 115.884 88.1745 115.96 88.2126 116.028C88.2508 116.097 88.3032 116.157 88.3663 116.204C88.4294 116.251 88.5018 116.283 88.5786 116.3C88.6554 116.317 88.7349 116.317 88.8117 116.3C88.8886 116.284 88.961 116.251 89.0241 116.204C89.0873 116.157 89.1398 116.098 89.1781 116.029C89.2163 115.961 89.2395 115.885 89.2461 115.806C89.2703 115.671 89.2749 115.533 89.2597 115.397Z" fill="#263238"/>
<path d="M93.7136 116.352C93.7073 116.298 93.6935 116.245 93.6727 116.195C93.666 116.168 93.666 116.14 93.6727 116.113C93.6832 116.092 93.6999 116.076 93.7204 116.065C93.8978 115.901 93.6727 115.683 93.5022 115.642C93.4409 115.627 93.3767 115.628 93.3157 115.644C93.2548 115.661 93.1992 115.693 93.1543 115.738L93.2975 115.206L93.925 115.342L93.9933 115.015L93.052 114.81C93.0291 114.855 93.0152 114.903 93.0111 114.953C93.0111 115.001 93.0656 115.015 93.0725 115.069C93.0793 115.124 93.0725 115.117 93.0725 115.144C93.0849 115.184 93.1116 115.218 93.1475 115.24C93.1816 115.24 93.2157 115.301 93.2089 115.342C93.2021 115.383 93.2089 115.342 93.2089 115.383C93.1827 115.448 93.1343 115.501 93.0725 115.533C93.0483 115.54 93.0269 115.554 93.0111 115.574C93.0111 115.574 93.0111 115.574 93.0111 115.615C93.0111 115.656 92.9633 115.69 92.9224 115.717C92.8815 115.744 92.7792 115.963 92.7383 116.113L93.0793 116.188V116.12C93.1134 115.956 93.2021 115.915 93.3112 115.935C93.4203 115.956 93.4817 116.038 93.4476 116.201L93.3385 116.706C93.3385 116.863 93.2225 116.911 93.1066 116.884C92.9906 116.856 92.9361 116.788 92.9702 116.624L93.0179 116.413L92.6769 116.338L92.6359 116.529C92.6153 116.601 92.6097 116.676 92.6193 116.75C92.6289 116.824 92.6537 116.895 92.6919 116.959C92.7302 117.023 92.7812 117.079 92.8418 117.122C92.9024 117.166 92.9713 117.197 93.0442 117.213C93.1171 117.228 93.1926 117.229 93.2658 117.215C93.339 117.2 93.4085 117.171 93.47 117.129C93.5315 117.086 93.5836 117.032 93.6231 116.969C93.6627 116.905 93.6888 116.835 93.7 116.761C93.7273 116.626 93.7319 116.488 93.7136 116.352Z" fill="#263238"/>
<path d="M90.0371 114.722C90.0712 114.558 90.1599 114.51 90.269 114.537C90.304 114.542 90.3362 114.559 90.3599 114.585C90.3836 114.612 90.3973 114.645 90.3986 114.681H90.5145C90.5185 114.7 90.5266 114.719 90.5384 114.736C90.5502 114.752 90.5653 114.766 90.5827 114.776C90.6237 114.81 90.6782 114.831 90.726 114.865C90.7485 114.793 90.7555 114.717 90.7466 114.643C90.7378 114.568 90.7132 114.496 90.6745 114.432C90.6359 114.367 90.584 114.312 90.5223 114.269C90.4607 114.226 90.3906 114.197 90.3167 114.183C90.2415 114.157 90.1616 114.15 90.083 114.16C90.0044 114.171 89.9292 114.199 89.8633 114.243C89.7975 114.288 89.7426 114.346 89.7029 114.415C89.6633 114.484 89.6399 114.561 89.6347 114.64C89.6315 114.683 89.6315 114.726 89.6347 114.769C89.6347 114.878 89.6347 114.844 89.7438 114.885C89.8529 114.926 89.887 114.981 89.7915 115.015H89.8529C89.8529 115.015 89.8529 115.063 89.8529 115.083C89.8529 115.103 89.8529 115.117 89.8188 115.144C89.8251 115.162 89.8251 115.181 89.8188 115.199C89.8188 115.199 89.7643 115.288 89.7506 115.301C89.7307 115.335 89.7025 115.363 89.6688 115.383C89.5801 115.438 89.5392 115.383 89.5119 115.52C89.4846 115.656 89.4778 115.67 89.4641 115.738C89.438 115.812 89.4279 115.892 89.4347 115.971C89.4414 116.05 89.4648 116.126 89.5033 116.195C89.5419 116.264 89.5946 116.324 89.6581 116.372C89.7216 116.419 89.7944 116.452 89.8717 116.469C89.949 116.486 90.029 116.487 90.1064 116.47C90.1839 116.454 90.257 116.422 90.321 116.375C90.385 116.329 90.4384 116.269 90.4776 116.2C90.5168 116.132 90.5411 116.055 90.5486 115.977L90.6578 115.499H90.6168C90.536 115.463 90.4584 115.419 90.3849 115.369L90.3235 115.315L90.1871 115.929C90.1871 116.092 90.0644 116.14 89.9552 116.113C89.8461 116.086 89.7847 116.011 89.8188 115.847L90.0166 114.919C90.0121 114.862 90.0265 114.804 90.0575 114.756L90.0371 114.722Z" fill="#263238"/>
<path d="M91.7156 115.847H91.7497C91.7497 115.813 91.7497 115.779 91.7497 115.731H91.8997L92.0157 115.206C92.0419 115.131 92.0519 115.052 92.0452 114.973C92.0384 114.894 92.015 114.818 91.9765 114.748C91.938 114.679 91.8852 114.619 91.8217 114.572C91.7582 114.525 91.6854 114.492 91.6081 114.475C91.5309 114.457 91.4509 114.457 91.3734 114.473C91.2959 114.489 91.2228 114.522 91.1588 114.568C91.0948 114.615 91.0415 114.675 91.0022 114.743C90.963 114.812 90.9388 114.888 90.9312 114.967V115.063C90.9789 115.104 91.0062 115.172 91.054 115.206C91.1017 115.24 91.1767 115.206 91.1563 115.322C91.1358 115.438 91.1153 115.417 91.1563 115.451C91.1972 115.486 91.204 115.451 91.2108 115.499C91.2191 115.51 91.2236 115.523 91.2236 115.537C91.2236 115.55 91.2191 115.563 91.2108 115.574C91.2108 115.574 91.1631 115.574 91.1563 115.636C91.1495 115.697 91.1563 115.738 91.1153 115.752C91.0744 115.765 90.9858 115.67 90.9107 115.676C90.8838 115.684 90.8596 115.699 90.8404 115.72C90.8212 115.74 90.8078 115.765 90.8016 115.792C90.7668 115.908 90.7417 116.027 90.7266 116.147C90.7017 116.219 90.693 116.296 90.7013 116.372C90.7095 116.448 90.7343 116.521 90.7741 116.586C90.8138 116.651 90.8675 116.707 90.9312 116.749C90.9949 116.791 91.0671 116.818 91.1426 116.829C91.2201 116.85 91.3013 116.853 91.3803 116.839C91.4593 116.825 91.5341 116.794 91.5996 116.747C91.66 116.695 91.7108 116.633 91.7497 116.563C91.7804 116.528 91.7973 116.483 91.7973 116.437C91.7973 116.391 91.7804 116.346 91.7497 116.311H91.7156L91.6678 116.147C91.6678 116.147 91.6678 116.147 91.7156 116.106C91.7633 116.065 91.7156 115.977 91.7838 115.929C91.852 115.881 91.7019 115.861 91.7156 115.847ZM91.4291 116.311C91.395 116.475 91.3063 116.522 91.1904 116.495C91.0744 116.468 91.0199 116.393 91.054 116.229L91.3268 115.001C91.3609 114.838 91.4427 114.79 91.5587 114.817C91.6746 114.844 91.7292 114.919 91.6951 115.083L91.4291 116.311Z" fill="#263238"/>
<path d="M92.3223 116.693L92.2473 117.041L91.8994 116.966L91.9744 116.618L92.3223 116.693Z" fill="#263238"/>
<path d="M95.1736 116.086C95.2145 116.086 95.2145 115.929 95.2282 115.874C95.2544 115.8 95.2644 115.72 95.2577 115.641C95.2509 115.563 95.2275 115.486 95.189 115.417C95.1505 115.348 95.0977 115.288 95.0342 115.24C94.9707 115.193 94.8979 115.16 94.8206 115.143C94.7434 115.126 94.6634 115.126 94.5859 115.142C94.5084 115.158 94.4353 115.19 94.3713 115.237C94.3073 115.284 94.254 115.343 94.2147 115.412C94.1755 115.481 94.1513 115.557 94.1437 115.636L94.0414 116.093C94.13 116.174 94.0414 116.304 94.0823 116.4C94.1232 116.495 94.0823 116.4 94.0823 116.44C94.0823 116.481 93.98 116.502 93.98 116.556C93.98 116.556 93.9254 116.638 93.8913 116.679C93.8698 116.712 93.858 116.749 93.8572 116.788C93.831 116.863 93.821 116.942 93.8277 117.021C93.8345 117.1 93.8579 117.177 93.8964 117.246C93.9349 117.315 93.9877 117.375 94.0512 117.422C94.1147 117.469 94.1875 117.503 94.2647 117.52C94.342 117.537 94.422 117.537 94.4995 117.521C94.577 117.505 94.6501 117.472 94.7141 117.426C94.7781 117.379 94.8314 117.319 94.8707 117.251C94.9099 117.182 94.9341 117.106 94.9417 117.027L95.0236 116.652C95.0236 116.556 95.1463 116.304 95.0236 116.229C94.9008 116.154 94.969 116.229 94.9554 116.181C94.947 116.165 94.9426 116.148 94.9426 116.13C94.9426 116.112 94.947 116.095 94.9554 116.079C95.0372 116.011 95.0986 116.127 95.1736 116.086ZM94.7575 116.686C94.7575 116.727 94.6893 116.741 94.6552 116.795C94.629 116.863 94.6129 116.934 94.6075 117.007C94.5734 117.17 94.4847 117.211 94.3756 117.191C94.2665 117.17 94.1983 117.088 94.2392 116.925C94.2392 116.877 94.3006 116.741 94.2869 116.7C94.2733 116.659 94.2187 116.7 94.1914 116.618C94.171 116.546 94.171 116.471 94.1914 116.4C94.1947 116.384 94.1947 116.368 94.1914 116.352C94.1914 116.352 94.1573 116.29 94.1914 116.263C94.1914 116.263 94.1914 116.174 94.1914 116.113C94.4097 116.195 94.4029 115.861 94.437 115.724C94.4711 115.588 94.5597 115.513 94.6689 115.54C94.778 115.567 94.8394 115.642 94.8053 115.799C94.759 115.938 94.7315 116.083 94.7234 116.229C94.7519 116.233 94.7782 116.247 94.7979 116.268C94.8177 116.289 94.8299 116.316 94.8326 116.345C94.8257 116.381 94.8257 116.418 94.8326 116.454C94.8326 116.454 94.8326 116.515 94.8326 116.543C94.8326 116.57 94.7917 116.543 94.7644 116.543C94.7455 116.55 94.7288 116.562 94.7157 116.578C94.7026 116.593 94.6936 116.612 94.6893 116.631L94.7575 116.686Z" fill="#263238"/>
<path d="M91.3608 111.127L93.6662 111.632" stroke="#263238" stroke-linecap="round" stroke-linejoin="round"/>
<path d="M86.1221 109.981L90.2145 110.882" stroke="#263238" stroke-linecap="round" stroke-linejoin="round"/>
<path d="M85.7812 111.564L88.4823 112.15" stroke="#263238" stroke-linecap="round" stroke-linejoin="round"/>
<path opacity="0.4" d="M62.1475 214.727C65.7317 213.789 69.4173 213.294 73.122 213.254C79.779 213.09 84.0351 214.352 89.4917 211.651C94.9482 208.95 98.4882 213.813 103.706 211.112C108.924 208.411 111.345 204.087 114.36 204.182C117.375 204.278 121.863 155.966 123.309 147.652C124.755 139.338 127.831 116.161 128.888 111.455L122.947 216.2L62.1475 214.727Z" fill="white"/>
<path d="M62.4339 194.115L79.0696 214.352L61.4995 213.26L62.4339 194.115Z" fill="#C53F3F" stroke="#263238" stroke-linecap="round" stroke-linejoin="round"/>
<path d="M106.584 154.097L106.318 161.798C106.281 162.872 106.033 163.929 105.587 164.908C105.142 165.886 104.508 166.767 103.722 167.501C102.936 168.234 102.013 168.806 101.006 169.182C99.9994 169.559 98.9282 169.734 97.8537 169.696L89.9417 169.417C88.8642 169.38 87.8047 169.13 86.8239 168.683C85.8432 168.235 84.9605 167.598 84.2266 166.809C83.4926 166.019 82.922 165.092 82.5473 164.081C82.1726 163.07 82.0014 161.995 82.0433 160.918L82.398 150.892C82.4744 148.723 83.4091 146.673 84.9964 145.193C86.5836 143.713 88.6937 142.925 90.8625 143L98.7745 143.273C98.9928 143.273 99.211 143.273 99.4566 143.321C98.3494 144.386 97.6506 145.805 97.4816 147.332C97.3126 148.859 97.6841 150.397 98.5316 151.678C99.379 152.959 100.649 153.903 102.12 154.345C103.591 154.787 105.171 154.699 106.584 154.097Z" fill="#C53F3F" stroke="#263238" stroke-linecap="round" stroke-linejoin="round"/>
<path d="M108.01 147.447C107.985 148.188 107.742 148.904 107.31 149.506C106.878 150.108 106.277 150.568 105.584 150.828C104.89 151.088 104.135 151.137 103.414 150.968C102.693 150.8 102.038 150.421 101.532 149.879C101.026 149.338 100.692 148.659 100.572 147.928C100.452 147.197 100.552 146.447 100.859 145.773C101.165 145.099 101.665 144.53 102.294 144.14C102.924 143.75 103.655 143.555 104.395 143.58C105.387 143.616 106.324 144.043 107.001 144.767C107.679 145.492 108.041 146.456 108.01 147.447Z" fill="#C53F3F" stroke="#263238" stroke-linecap="round" stroke-linejoin="round"/>
<path opacity="0.4" d="M84.2944 161.873L95.9237 151.928C95.9237 151.928 94.4505 146.601 95.9237 144.917H90.3376C88.9923 144.912 87.6961 145.422 86.7136 146.341C85.7312 147.26 85.1367 148.519 85.0515 149.862L84.2944 161.873Z" fill="white"/>
<path opacity="0.4" d="M102.683 147.652L105.173 144.924C105.173 144.924 103.624 143.88 102.683 144.924C101.742 145.967 102.683 147.652 102.683 147.652Z" fill="white"/>
<path d="M101.469 207.067L120.219 207.879" stroke="#263238" stroke-linecap="round" stroke-linejoin="round"/>
<path d="M94.9756 208.956L120.219 210.307" stroke="#263238" stroke-linecap="round" stroke-linejoin="round"/>
<path d="M113.61 214.352H120.219" stroke="#263238" stroke-linecap="round" stroke-linejoin="round"/>
<path opacity="0.2" d="M90.6306 145.483C80.9589 150.135 70.4823 133.84 66.8127 131.596C65.9081 131.025 65.0647 130.362 64.2959 129.618L65.892 102.881L94.2047 104.02C94.0205 108.003 94.0819 112.403 94.9686 114.933C96.8784 120.451 100.296 140.838 90.6306 145.483Z" fill="black" fill-opacity="0.7"/>
<path opacity="0.4" d="M79.7925 146.315C79.7925 146.315 87.5272 149.671 91.033 147.679C94.5388 145.687 98.3175 141.882 98.8563 133.431C98.8563 133.431 103.46 145.333 94.1773 148.9C84.8944 152.467 79.7925 146.315 79.7925 146.315Z" fill="white"/>
<path opacity="0.4" d="M76.7778 151.076C76.7778 151.076 92.4654 155.291 99.177 147.666C99.177 147.666 98.2767 151.901 91.0331 153.122C83.7895 154.343 76.7778 151.076 76.7778 151.076Z" fill="white"/>
<path opacity="0.4" d="M102.008 123.827C100.814 121.706 102.281 140.77 102.281 140.77C102.281 140.77 104.436 128.179 102.008 123.827Z" fill="white"/>
</g>
<path d="M130.778 105.486L124.161 217.857L59.167 215.723L64.2962 129.618L65.8922 102.881L94.2117 104.02L130.778 105.486Z" stroke="#263238" stroke-linecap="round" stroke-linejoin="round"/>
<path opacity="0.4" d="M127.49 218.457L125.123 217.857L130.777 114.953L131.78 121.747L127.49 218.457Z" fill="white"/>
<path d="M90.6307 145.483C89.7363 145.958 88.7417 146.214 87.729 146.23C86.7162 146.245 85.7143 146.019 84.8058 145.572C83.2335 144.747 81.9649 143.442 81.184 141.847C78.4899 136.991 71.1985 125.928 69.8549 122.75C68.5112 119.571 65.5373 110.581 62.5703 106.81C59.6033 103.038 57.98 97.3629 57.98 97.3629L56.9023 42.3198C58.5188 50.2796 62.9728 59.317 62.9728 59.317C66.8424 61.3306 70.1303 64.3038 72.5218 67.952C73.2179 68.6933 73.8414 69.4996 74.3838 70.3597C78.79 77.1804 80.9249 89.4577 81.1568 99.0067C81.4296 109.804 84.9354 114.694 90.6034 124.1C96.2714 133.506 94.3139 143.389 90.6307 145.483Z" fill="white"/>
<path opacity="0.4" d="M90.6308 145.483C89.7327 145.947 88.7394 146.196 87.7287 146.211C86.7181 146.227 85.7176 146.008 84.8059 145.571C87.9025 144.726 91.9676 143.136 91.0332 140.797C89.5667 137.059 85.2765 142.604 83.1212 140.797C80.9658 138.989 73.1357 128.622 78.108 124.059C83.0802 119.496 81.5183 111.843 78.108 109.688C74.6976 107.532 76.9143 102.396 77.992 94.3139C78.6741 89.4235 76.3346 78.3466 74.4111 70.3528C78.8173 77.1735 80.9522 89.4507 81.1841 98.9997C81.4569 109.797 84.9628 114.687 90.6308 124.093C96.2988 133.499 94.3139 143.518 90.6308 145.483Z" fill="#C53F3F"/>
<path d="M56.9023 42.2856C58.5188 50.2454 62.9728 59.2828 62.9728 59.2828C66.8424 61.2964 70.1303 64.2696 72.5218 67.9178C78.1898 73.8518 80.8907 88.1549 81.1568 98.9452C81.4228 109.736 84.9354 114.633 90.6034 124.039C96.2714 133.444 94.6958 143.252 90.6034 145.483C87.7524 147.045 83.8578 146.704 81.1568 141.847C78.4558 136.991 71.1712 125.928 69.8276 122.749C68.4839 119.571 65.5101 110.581 62.5431 106.809C59.5761 103.038 57.9527 97.3628 57.9527 97.3628" stroke="#263238" stroke-linecap="round" stroke-linejoin="round"/>
<path d="M74.4248 121.747C74.4248 121.747 78.831 121.351 80.8499 119.701" stroke="#263238" stroke-linecap="round" stroke-linejoin="round"/>
<path d="M56.3635 98.4475C56.3635 98.4475 55.5041 100.494 60.0057 102.54" stroke="#263238" stroke-linecap="round" stroke-linejoin="round"/>
</svg>
