<svg width="390" height="324" viewBox="0 0 390 324" fill="none" xmlns="http://www.w3.org/2000/svg">
<path d="M126.872 189.776C121.294 68.9596 176.749 13.5852 205.174 1.00008L233.443 1.00005C263.787 1.00001 307.482 0.999956 350.889 1.00006C375.97 1.00012 389 20.036 389 36.4135V289.953C389 313.044 360.437 323.382 354.081 323.382H323.529H294.345H146.598H0.67627C16.5513 252.313 91.1171 203.595 126.872 189.776Z" fill="#FFFBFB" stroke="white"/>
<path d="M43.8135 322.412C136.753 321.963 241.017 321.956 333.957 322.412C241.017 322.86 136.753 322.86 43.8135 322.412Z" fill="#263238"/>
<path d="M337.712 47.5903H220.132V56.6366H337.712V47.5903Z" fill="#FFC727"/>
<path d="M280.664 72.9949H277.173V117.117H280.664V72.9949Z" fill="#C7C7C7"/>
<path d="M288.373 115.191H269.472L268.502 141.559H289.335L288.373 115.191ZM274.961 138.465H272.999V118.961H274.961V138.465ZM279.892 138.465H277.945V118.961H279.892V138.465ZM284.831 138.465H282.883V118.961H284.831V138.465Z" fill="#C7C7C7"/>
<path d="M282.692 77.3307H275.365L274.63 50.0081H283.427L282.692 77.3307Z" fill="#263238"/>
<path d="M279.032 54.7553C279.69 54.7553 280.223 54.2223 280.223 53.5648C280.223 52.9073 279.69 52.3743 279.032 52.3743C278.375 52.3743 277.842 52.9073 277.842 53.5648C277.842 54.2223 278.375 54.7553 279.032 54.7553Z" fill="#FFC727"/>
<path d="M317.606 72.9949H314.115V108.504H317.606V72.9949Z" fill="#C7C7C7"/>
<path d="M325.859 118.77C325.859 126.178 321.031 132.99 315.857 132.99C310.684 132.99 305.863 126.178 305.863 118.77C305.863 111.363 311.779 107.659 315.857 107.659C319.936 107.659 325.859 111.333 325.859 118.77Z" fill="#C7C7C7"/>
<path d="M319.634 77.3307H312.307L311.573 50.0081H320.369L319.634 77.3307Z" fill="#263238"/>
<path d="M315.967 54.7553C316.624 54.7553 317.157 54.2223 317.157 53.5648C317.157 52.9073 316.624 52.3743 315.967 52.3743C315.309 52.3743 314.776 52.9073 314.776 53.5648C314.776 54.2223 315.309 54.7553 315.967 54.7553Z" fill="#FFC727"/>
<path d="M220.066 88.1407V131.498H246.58V72.8847H241.062V88.1407H220.066ZM223.814 94.1667C223.813 93.8539 223.904 93.5477 224.077 93.2869C224.249 93.0261 224.496 92.8225 224.784 92.7017C225.073 92.581 225.391 92.5487 225.698 92.6088C226.005 92.6689 226.287 92.8188 226.509 93.0395C226.73 93.2602 226.882 93.5417 226.943 93.8484C227.005 94.1551 226.974 94.4731 226.854 94.7623C226.735 95.0514 226.533 95.2986 226.273 95.4725C226.013 95.6465 225.707 95.7393 225.394 95.7393C224.976 95.7393 224.575 95.5739 224.279 95.2792C223.983 94.9844 223.816 94.5844 223.814 94.1667Z" fill="#C7C7C7"/>
<path d="M240.172 77.3307H247.499L248.233 50.0081H239.437L240.172 77.3307Z" fill="#263238"/>
<path d="M243.832 54.7553C244.489 54.7553 245.022 54.2223 245.022 53.5648C245.022 52.9073 244.489 52.3743 243.832 52.3743C243.174 52.3743 242.641 52.9073 242.641 53.5648C242.641 54.2223 243.174 54.7553 243.832 54.7553Z" fill="#FFC727"/>
<path d="M257.956 11.0743V47.5903H315.041V11.0743H257.956Z" fill="#FFC727"/>
<path opacity="0.2" d="M257.956 11.0743V47.5903H315.041V11.0743H257.956Z" fill="black"/>
<path d="M330.179 24.4491C327.335 24.4491 324.697 26.8889 322.037 26.8889H315.048V31.7685H322.037C324.697 31.7685 327.335 34.2156 330.179 34.2156C333.545 34.2156 336.058 32.3417 336.058 29.336C336.058 26.3304 333.545 24.4491 330.179 24.4491ZM330.951 31.1585C330.589 31.1585 330.235 31.051 329.934 30.8496C329.633 30.6482 329.398 30.362 329.26 30.0272C329.122 29.6924 329.086 29.3242 329.157 28.969C329.228 28.6138 329.403 28.2878 329.66 28.0322C329.916 27.7766 330.243 27.6029 330.599 27.5331C330.954 27.4634 331.322 27.5006 331.656 27.6403C331.991 27.7799 332.276 28.0156 332.476 28.3174C332.676 28.6193 332.782 28.9738 332.781 29.336C332.779 29.8201 332.585 30.2836 332.242 30.6252C331.899 30.9668 331.435 31.1585 330.951 31.1585Z" fill="#FFC727"/>
<g opacity="0.2">
<path d="M330.179 24.4491C327.335 24.4491 324.697 26.8889 322.037 26.8889H315.048V31.7685H322.037C324.697 31.7685 327.335 34.2156 330.179 34.2156C333.545 34.2156 336.058 32.3417 336.058 29.336C336.058 26.3304 333.545 24.4491 330.179 24.4491ZM330.951 31.1585C330.589 31.1585 330.235 31.051 329.934 30.8496C329.633 30.6482 329.398 30.362 329.26 30.0272C329.122 29.6924 329.086 29.3242 329.157 28.969C329.228 28.6138 329.403 28.2878 329.66 28.0322C329.916 27.7766 330.243 27.6029 330.599 27.5331C330.954 27.4634 331.322 27.5006 331.656 27.6403C331.991 27.7799 332.276 28.0156 332.476 28.3174C332.676 28.6193 332.782 28.9738 332.781 29.336C332.779 29.8201 332.585 30.2836 332.242 30.6252C331.899 30.9668 331.435 31.1585 330.951 31.1585Z" fill="black"/>
</g>
<path d="M273.396 29.8651C273.396 29.8651 265.878 43.9233 264.416 45.8339C262.953 47.7446 259.404 47.5903 257.206 47.5903H239.209C237.005 47.5903 233.463 47.752 232 45.8339C230.538 43.9159 223.02 29.8651 223.02 29.8651H273.396Z" fill="#455A64"/>
<path d="M151.752 128.449C151.752 128.449 149.878 122.004 144.844 120.762C139.81 119.52 138.091 122.415 134.953 121.879C131.815 121.342 125.818 118.293 121.644 120.174C117.47 122.055 116.544 128.485 114.479 129.793C112.414 131.101 107.52 129.72 104.874 133.843C101.795 138.627 103.97 142.859 102.89 145.505C101.097 149.914 96.7246 152.479 97.4007 158.571C98.1356 165.133 103.096 166.699 105.697 169.638C108.189 172.46 106.778 178.648 113.612 181.396C120.446 184.145 123.775 180.389 128.405 180.198C133.035 180.007 137.958 184.74 143.338 183.278C148.717 181.815 148.776 177.112 150.753 175.297C152.729 173.482 156.264 174.599 158.969 171.145C161.673 167.691 159.409 162.98 159.659 161.349C160.1 158.564 162.386 157.755 163.04 153.794C163.694 149.833 160.034 145.667 159.52 144.241C158.3 140.765 162.408 135.753 159.762 132.057C156.411 127.368 151.752 128.449 151.752 128.449Z" fill="#263238"/>
<path d="M118.726 122.731C117.573 124.818 116.75 127.464 114.457 128.61C113.149 129.345 111.561 129.294 110.165 129.624C106.344 130.278 103.059 132.799 102.464 136.76C102.118 138.612 102.427 140.515 102.655 142.463C102.861 143.932 102.75 145.637 101.677 146.806C99.0539 150.135 96.3348 154.154 97.4004 158.564C95.8792 153.861 98.9657 149.473 101.582 145.828C102.214 144.858 102.118 143.682 101.993 142.507C101.751 140.611 101.391 138.612 101.744 136.628C102.383 132.454 106.02 129.58 110.062 129.058C111.936 128.72 113.964 128.831 115.464 127.493C116.735 126.391 117.823 124.164 118.726 122.746V122.731Z" fill="#263238"/>
<path d="M139.178 183.351C144.447 184.189 147.423 183.858 149.819 178.618C150.208 177.751 150.701 176.934 151.289 176.186C151.76 175.803 152.306 175.52 152.891 175.356C154.963 174.702 157.131 174.194 158.557 172.512C159.24 171.686 159.753 170.732 160.064 169.707C160.376 168.681 160.48 167.604 160.372 166.537C160.247 165.067 159.916 163.642 159.637 162.194C160.082 163.603 160.437 165.039 160.702 166.493C160.88 167.621 160.823 168.774 160.534 169.879C160.246 170.984 159.733 172.018 159.027 172.916C157.557 174.724 155.154 175.385 153.104 176.054C151.561 176.362 151.053 177.663 150.363 178.934C147.864 184.233 144.484 184.813 139.134 183.344L139.178 183.351Z" fill="#263238"/>
<path d="M153.964 191.648C162.129 211.489 188.018 265.348 205.097 268.347C218.684 270.728 256.472 241.061 266.745 230.868C271.676 225.974 241.76 186.202 236.755 191.662C232.868 195.881 209.065 214.517 206.405 214.517C203.928 214.517 184.182 192.948 170.785 179.779C147.541 156.895 148.137 177.472 153.964 191.648Z" fill="#AD6359"/>
<path d="M258.235 236.938C263.034 234.836 289.1 223.71 294.295 219.198C299.491 214.686 313.402 200.518 310.323 196.204C307.244 191.89 302.835 195.704 302.835 195.704C302.835 195.704 307.773 188.804 304.304 184.747C300.836 180.691 294.148 186.849 294.148 186.849C294.148 186.849 298.705 179.39 294.927 175.591C291.15 171.791 285.499 179.111 285.499 179.111C285.499 179.111 289.974 172.497 285.55 170.66C280.23 168.455 273.351 181.617 267.274 186.202C265.892 187.238 237.776 205.309 237.776 205.309L258.235 236.938Z" fill="#AD6359"/>
<path d="M285.977 178.493C280.891 188.142 276.997 191.493 267.693 196.865C267.517 196.976 267.627 197.27 267.825 197.174C277.416 192.765 282.905 189.252 286.454 178.721C286.623 178.207 286.212 178.031 285.977 178.493Z" fill="#263238"/>
<path d="M294.516 186.07C288.365 195.623 284.176 199.298 274.843 205.647C274.711 205.735 274.843 205.97 274.99 205.89C284.661 200.437 290.062 196.829 294.949 186.46C295.177 185.989 294.802 185.636 294.516 186.07Z" fill="#263238"/>
<path d="M302.35 196.013C295.736 204.831 291.327 209.064 281.457 214.054C281.414 214.08 281.382 214.12 281.367 214.167C281.351 214.215 281.353 214.267 281.373 214.313C281.393 214.359 281.429 214.396 281.474 214.417C281.519 214.438 281.571 214.443 281.619 214.429C292.157 210.314 297.713 205.096 302.6 196.241C302.93 195.638 302.791 195.462 302.35 196.013Z" fill="#263238"/>
<path d="M229.127 204.383C229.127 204.383 234.807 191.949 238.504 187.033C242.2 182.117 262.755 168.881 265.841 173.158C269.861 178.67 259.514 188.65 253.811 192.868C253.811 192.868 263.115 205.618 257.236 214.385C251.357 223.152 229.127 204.383 229.127 204.383Z" fill="#AD6359"/>
<path d="M266.451 175.032C266.488 182.704 258.639 187.768 253.407 192.28C253.327 192.343 253.264 192.425 253.222 192.518C253.181 192.611 253.163 192.713 253.169 192.815C253.176 192.917 253.207 193.016 253.26 193.103C253.312 193.19 253.386 193.263 253.473 193.316C257.015 198.916 260.381 207.852 257.662 214.304C257.642 214.341 257.638 214.384 257.651 214.424C257.663 214.464 257.691 214.498 257.728 214.517C257.765 214.537 257.808 214.541 257.848 214.528C257.888 214.516 257.922 214.488 257.941 214.451C261.799 207.925 259.205 198.879 254.936 192.993C260.366 188.451 268.016 183.028 266.524 175.032C266.517 174.981 266.451 174.981 266.451 175.032Z" fill="#263238"/>
<path d="M219.169 204.699L250.211 247.322C250.211 247.322 214.143 273.483 202.444 270.206C190.744 266.928 164.061 222.571 152.604 190.7C144.014 166.824 153.898 162.444 170.579 178.317C187.261 194.19 204.479 212.188 206.184 211.908C207.889 211.629 219.169 204.699 219.169 204.699Z" fill="#FFC727"/>
<path opacity="0.7" d="M219.169 204.699L250.211 247.322C250.211 247.322 214.143 273.483 202.444 270.206C190.744 266.928 164.061 222.571 152.604 190.7C144.014 166.824 153.898 162.444 170.579 178.317C187.261 194.19 204.479 212.188 206.184 211.908C207.889 211.629 219.169 204.699 219.169 204.699Z" fill="white"/>
<path d="M222.292 195.344C221.954 195.241 205.787 207.602 205.787 207.602C205.787 207.602 244.471 257.066 244.868 257.081C245.265 257.096 262.226 245.742 262.034 245.08C261.843 244.419 222.292 195.344 222.292 195.344Z" fill="#FFC727"/>
<g opacity="0.4">
<path d="M222.292 195.344C221.954 195.241 205.787 207.602 205.787 207.602C205.787 207.602 244.471 257.066 244.868 257.081C245.265 257.096 262.226 245.742 262.034 245.08C261.843 244.419 222.292 195.344 222.292 195.344Z" fill="white"/>
</g>
<path d="M323.522 219.022L321.016 222.799L226.864 160.283L229.369 156.499C237.813 143.793 265.724 147.489 291.716 164.751C317.709 182.014 331.958 206.316 323.522 219.022Z" fill="#37474F"/>
<path d="M318.535 223.981C326.922 211.325 312.723 187.152 286.822 169.988C260.92 152.824 233.124 149.17 224.738 161.826C216.351 174.482 230.55 198.656 256.451 215.819C282.353 232.983 310.149 236.637 318.535 223.981Z" fill="#263238"/>
<path opacity="0.1" d="M317.7 222.371C325.251 211.001 311.423 188.534 286.814 172.19C262.204 155.845 236.133 151.813 228.581 163.183C221.03 174.553 234.858 197.019 259.468 213.364C284.077 229.708 310.149 233.74 317.7 222.371Z" fill="black"/>
<path d="M187.533 322.411L176.326 261.079C176.326 261.079 187.533 250.835 186.386 232.419C185.762 222.527 167.838 187.114 158.219 174.724C149.194 163.098 129.706 163.701 117.683 178.31C78.8375 225.415 66.8444 287.931 61.8325 322.397L187.533 322.411Z" fill="#FFC727"/>
<g opacity="0.7">
<path d="M187.533 322.411L176.326 261.079C176.326 261.079 187.533 250.835 186.386 232.419C185.762 222.527 167.838 187.114 158.219 174.724C149.194 163.098 129.706 163.701 117.683 178.31C78.8375 225.415 66.8444 287.931 61.8325 322.397L187.533 322.411Z" fill="white"/>
</g>
<path d="M130.426 177.332C133.573 181.002 137.366 184.063 141.618 186.364C145.821 188.707 150.498 190.074 155.301 190.362C157.689 190.475 160.081 190.307 162.429 189.862L164.178 189.48H164.23C164.23 189.48 164.23 189.48 164.362 189.48C164.448 189.483 164.531 189.509 164.605 189.553L164.722 189.656L164.781 189.73C164.834 189.803 164.883 189.879 164.928 189.958C165.016 190.097 165.09 190.237 165.163 190.376C165.303 190.648 165.442 190.928 165.567 191.207C166.089 192.309 166.552 193.411 167 194.558C168.772 199.065 170.301 203.665 171.579 208.337C172.873 213.013 173.894 217.761 174.636 222.557C175.4 227.362 175.724 232.228 175.606 237.092C175.53 241.986 174.654 246.834 173.012 251.445C171.346 256.107 168.371 260.19 164.443 263.203L164.605 262.828L167.956 292.546L171.167 322.242L167.412 292.575L163.789 262.894V262.659L163.98 262.519C167.771 259.594 170.637 255.636 172.233 251.121C173.826 246.598 174.667 241.844 174.724 237.048C174.944 227.436 173.254 217.846 170.77 208.55C169.517 203.896 168.013 199.314 166.265 194.822C165.824 193.698 165.361 192.618 164.862 191.501C164.737 191.236 164.605 190.964 164.472 190.707C164.406 190.575 164.333 190.45 164.267 190.332L164.164 190.178H164.2C164.254 190.216 164.318 190.236 164.384 190.237C164.538 190.237 164.45 190.237 164.458 190.237H164.406L162.606 190.612C160.195 191.049 157.739 191.188 155.294 191.023C150.408 190.66 145.669 189.185 141.441 186.709C137.226 184.285 133.492 181.107 130.426 177.332Z" fill="#263238"/>
<path d="M141.993 215.083C141.993 215.631 141.83 216.166 141.526 216.622C141.222 217.078 140.789 217.433 140.283 217.642C139.776 217.852 139.219 217.907 138.682 217.8C138.144 217.693 137.651 217.429 137.263 217.042C136.876 216.654 136.612 216.161 136.505 215.623C136.398 215.086 136.453 214.529 136.663 214.023C136.872 213.516 137.228 213.084 137.683 212.779C138.139 212.475 138.674 212.312 139.222 212.312C139.957 212.312 140.662 212.604 141.181 213.124C141.701 213.643 141.993 214.348 141.993 215.083Z" fill="#263238"/>
<path d="M168.499 216.545C168.501 217.095 168.339 217.633 168.034 218.091C167.73 218.549 167.296 218.906 166.788 219.118C166.28 219.329 165.721 219.384 165.182 219.277C164.642 219.171 164.146 218.906 163.757 218.517C163.369 218.128 163.104 217.632 162.997 217.093C162.89 216.553 162.946 215.994 163.157 215.486C163.368 214.978 163.725 214.545 164.183 214.24C164.641 213.935 165.179 213.773 165.729 213.775C166.464 213.775 167.168 214.067 167.688 214.586C168.208 215.106 168.499 215.811 168.499 216.545Z" fill="#263238"/>
<path d="M138.267 236.049C138.268 236.599 138.107 237.136 137.802 237.594C137.498 238.052 137.065 238.409 136.557 238.62C136.05 238.832 135.491 238.888 134.952 238.782C134.412 238.675 133.917 238.411 133.527 238.023C133.138 237.635 132.873 237.14 132.765 236.601C132.657 236.062 132.712 235.503 132.922 234.995C133.132 234.487 133.488 234.053 133.945 233.747C134.402 233.442 134.939 233.278 135.489 233.278C136.224 233.278 136.93 233.57 137.451 234.089C137.971 234.609 138.265 235.313 138.267 236.049Z" fill="#263238"/>
<path d="M129.507 261.079C129.509 261.628 129.347 262.166 129.043 262.624C128.738 263.082 128.305 263.439 127.798 263.65C127.29 263.862 126.731 263.918 126.192 263.811C125.653 263.705 125.157 263.441 124.768 263.053C124.379 262.665 124.113 262.17 124.006 261.631C123.898 261.092 123.952 260.533 124.162 260.025C124.372 259.517 124.728 259.083 125.185 258.777C125.642 258.471 126.18 258.308 126.729 258.308C127.465 258.308 128.17 258.6 128.691 259.119C129.212 259.639 129.505 260.343 129.507 261.079Z" fill="#263238"/>
<path d="M128.625 285.734C128.624 286.281 128.46 286.816 128.155 287.271C127.85 287.726 127.416 288.08 126.91 288.288C126.404 288.497 125.847 288.551 125.31 288.443C124.773 288.335 124.28 288.071 123.893 287.683C123.507 287.295 123.243 286.801 123.137 286.264C123.031 285.727 123.086 285.17 123.296 284.665C123.506 284.159 123.861 283.726 124.317 283.422C124.772 283.118 125.307 282.956 125.855 282.956C126.219 282.956 126.58 283.028 126.917 283.168C127.253 283.307 127.559 283.512 127.817 283.77C128.074 284.028 128.278 284.334 128.417 284.671C128.555 285.008 128.626 285.369 128.625 285.734Z" fill="#263238"/>
<path d="M166.839 238.114C166.84 238.664 166.678 239.202 166.374 239.66C166.069 240.118 165.635 240.475 165.127 240.686C164.619 240.897 164.06 240.953 163.521 240.846C162.981 240.739 162.485 240.474 162.097 240.085C161.708 239.697 161.443 239.201 161.336 238.661C161.229 238.122 161.285 237.563 161.496 237.055C161.707 236.547 162.064 236.113 162.522 235.809C162.98 235.504 163.518 235.342 164.068 235.343C164.803 235.343 165.508 235.635 166.027 236.155C166.547 236.674 166.839 237.379 166.839 238.114Z" fill="#263238"/>
<path d="M157.881 285.212C157.881 285.762 157.718 286.299 157.412 286.756C157.106 287.213 156.672 287.569 156.164 287.779C155.656 287.989 155.097 288.044 154.558 287.936C154.019 287.828 153.524 287.563 153.136 287.174C152.748 286.784 152.484 286.289 152.377 285.749C152.271 285.21 152.327 284.651 152.539 284.144C152.75 283.636 153.107 283.203 153.565 282.899C154.023 282.594 154.56 282.433 155.11 282.434C155.475 282.434 155.835 282.506 156.172 282.646C156.509 282.785 156.814 282.99 157.072 283.248C157.329 283.506 157.533 283.813 157.672 284.15C157.811 284.487 157.882 284.848 157.881 285.212Z" fill="#263238"/>
<path d="M127.332 312.961C128.862 312.961 130.102 311.721 130.102 310.19C130.102 308.66 128.862 307.42 127.332 307.42C125.802 307.42 124.562 308.66 124.562 310.19C124.562 311.721 125.802 312.961 127.332 312.961Z" fill="#263238"/>
<path d="M159.38 309.669C159.381 310.219 159.219 310.757 158.915 311.215C158.61 311.673 158.176 312.03 157.668 312.241C157.16 312.452 156.601 312.508 156.062 312.401C155.522 312.294 155.027 312.029 154.638 311.64C154.249 311.251 153.984 310.756 153.877 310.216C153.77 309.677 153.826 309.117 154.037 308.61C154.248 308.102 154.605 307.668 155.063 307.363C155.521 307.059 156.059 306.897 156.609 306.898C157.344 306.898 158.049 307.19 158.568 307.71C159.088 308.229 159.38 308.934 159.38 309.669Z" fill="#263238"/>
<path d="M158.542 262.027C158.543 262.576 158.382 263.114 158.077 263.572C157.773 264.03 157.34 264.387 156.832 264.598C156.325 264.81 155.766 264.866 155.227 264.759C154.687 264.653 154.192 264.389 153.803 264.001C153.413 263.613 153.148 263.118 153.04 262.579C152.932 262.04 152.987 261.481 153.197 260.973C153.407 260.465 153.763 260.03 154.22 259.725C154.677 259.419 155.214 259.256 155.764 259.256C156.129 259.255 156.49 259.326 156.827 259.465C157.164 259.604 157.47 259.808 157.728 260.065C157.986 260.322 158.191 260.628 158.33 260.965C158.47 261.301 158.542 261.662 158.542 262.027Z" fill="#263238"/>
<path d="M165.325 166.126C165.325 166.126 166.655 183.483 163.495 183.858C153.787 185.034 142.595 171.931 141.941 169.829C141.779 169.293 142.191 155.771 142.544 145.262C142.764 138.502 142.97 132.983 142.97 132.983L168.235 146.563L165.523 164.817L165.325 166.126Z" fill="#AD6359"/>
<path d="M168.235 146.563L165.523 164.817C160.535 163.354 155.911 160.856 151.952 157.487C147.992 154.118 144.787 149.952 142.544 145.262C142.764 138.502 142.97 132.983 142.97 132.983L146.152 134.555L168.235 146.563Z" fill="#263238"/>
<path d="M193.713 122.356C192.978 154.735 173.526 157.961 166.523 157.799C160.181 157.652 138.598 156.33 135.989 124.069C133.38 91.8077 148.636 81.8869 163.179 81.446C177.722 81.005 194.433 90.022 193.713 122.356Z" fill="#AD6359"/>
<path d="M188.422 121.695C187.697 121.516 186.983 121.295 186.284 121.034C185.501 120.902 184.781 120.521 184.233 119.946C184.097 119.73 184.036 119.476 184.06 119.222C184.084 118.968 184.191 118.729 184.365 118.542C185.152 117.807 186.232 117.866 187.232 118.138C188.244 118.384 189.129 118.997 189.715 119.858C189.838 120.062 189.9 120.297 189.891 120.535C189.883 120.773 189.805 121.004 189.668 121.198C189.531 121.393 189.34 121.544 189.119 121.632C188.898 121.72 188.655 121.742 188.422 121.695Z" fill="#263238"/>
<path d="M166.354 120.078C167.094 119.993 167.83 119.87 168.558 119.711C169.362 119.7 170.139 119.418 170.763 118.91C170.927 118.716 171.022 118.472 171.032 118.218C171.043 117.964 170.969 117.714 170.822 117.506C170.146 116.654 169.065 116.58 168.044 116.713C167.006 116.818 166.045 117.305 165.347 118.079C165.198 118.263 165.105 118.486 165.08 118.721C165.055 118.956 165.098 119.193 165.204 119.404C165.311 119.615 165.476 119.791 165.679 119.911C165.883 120.03 166.117 120.089 166.354 120.078Z" fill="#263238"/>
<path d="M170.719 126.766C170.719 126.677 170.543 126.854 170.535 126.949C170.455 129.154 169.992 131.66 167.949 132.255C167.89 132.255 167.89 132.387 167.949 132.38C170.41 132.226 170.998 128.889 170.719 126.766Z" fill="#263238"/>
<path d="M168.911 124.355C165.391 123.841 164.627 130.918 167.89 131.395C171.152 131.873 171.865 124.782 168.911 124.355Z" fill="#263238"/>
<path d="M167.486 124.561C166.824 124.899 166.141 125.538 165.384 125.531C164.517 125.531 163.914 124.715 163.459 123.936C163.407 123.856 163.341 123.936 163.326 124.01C163.165 125.362 163.532 126.81 164.965 127.17C166.273 127.493 167.353 126.435 167.838 125.068C167.927 124.84 167.75 124.443 167.486 124.561Z" fill="#263238"/>
<path d="M183.006 127.552C183.006 127.471 183.16 127.677 183.153 127.765C182.83 129.97 182.822 132.505 184.718 133.46C184.777 133.46 184.762 133.6 184.718 133.585C182.271 132.961 182.323 129.573 183.006 127.552Z" fill="#263238"/>
<path d="M185.211 125.494C188.768 125.634 188.224 132.733 184.932 132.601C181.639 132.468 182.227 125.377 185.211 125.494Z" fill="#263238"/>
<path d="M186.681 126.075C187.217 126.494 187.717 127.221 188.385 127.317C189.054 127.412 189.789 126.699 190.34 126.001C190.399 125.935 190.45 126.001 190.45 126.09C190.384 127.449 189.826 128.831 188.503 128.985C187.18 129.139 186.511 127.905 186.298 126.53C186.21 126.273 186.431 125.906 186.681 126.075Z" fill="#263238"/>
<path d="M168.397 144.006C168.845 144.594 169.256 145.38 170.035 145.564C170.848 145.676 171.674 145.613 172.46 145.38C172.476 145.377 172.492 145.379 172.507 145.386C172.521 145.392 172.534 145.402 172.542 145.416C172.551 145.429 172.555 145.445 172.555 145.461C172.555 145.476 172.55 145.492 172.541 145.505C172.162 145.879 171.689 146.144 171.172 146.273C170.655 146.403 170.113 146.391 169.602 146.24C169.173 146.055 168.81 145.747 168.559 145.354C168.307 144.961 168.179 144.502 168.191 144.035C168.161 143.94 168.308 143.918 168.397 144.006Z" fill="#263238"/>
<path d="M178.34 136.951C178.34 136.951 178.479 140.273 178.34 141.823C178.34 141.97 177.943 142 177.414 141.978C177.414 141.978 177.37 141.978 177.355 141.978C176.004 142.091 174.648 141.831 173.435 141.226C172.222 140.621 171.198 139.693 170.477 138.546C170.462 138.513 170.459 138.475 170.468 138.44C170.477 138.405 170.497 138.374 170.526 138.352C170.555 138.329 170.59 138.318 170.627 138.318C170.663 138.319 170.698 138.332 170.726 138.355C172.622 140.045 174.842 140.647 177.252 140.919C177.406 140.501 176.833 135.239 177.076 135.246C177.928 135.246 179.538 135.981 180.515 136.378C180.427 129.448 179.229 122.592 179.251 115.691C179.255 115.643 179.275 115.598 179.308 115.562C179.341 115.527 179.385 115.504 179.433 115.497C179.481 115.491 179.53 115.5 179.572 115.525C179.613 115.549 179.645 115.587 179.663 115.632C181.426 122.731 181.698 130.697 181.97 137.855C182.007 138.744 178.935 137.274 178.34 136.951Z" fill="#263238"/>
<path d="M135.599 124.333C140.934 125.494 143.734 114.361 143.734 114.361C143.734 114.361 154.691 115.912 160.489 100.648C160.489 100.648 159.233 107.953 153.831 113.009C153.831 113.009 173.438 113.633 183.814 98.5906C183.814 98.5906 179.405 106.38 175.981 108.879C175.981 108.879 184.395 107.74 189.26 101.706C189.26 101.706 191.354 111.51 193.596 114.449C193.596 114.449 197.483 80.5274 165.67 79.7852C165.67 79.7852 145.88 78.3742 136.687 92.9247C127.494 107.475 135.599 124.333 135.599 124.333Z" fill="#263238"/>
<path d="M141.118 126.685C141.118 126.685 135.188 115.867 130.352 117.866C125.517 119.865 129.213 135.018 134.35 137.598C134.986 137.973 135.691 138.217 136.423 138.313C137.156 138.409 137.9 138.356 138.611 138.157C139.322 137.958 139.986 137.617 140.562 137.154C141.138 136.692 141.615 136.118 141.963 135.467L141.118 126.685Z" fill="#AD6359"/>
<path d="M131.506 122.187C131.488 122.183 131.469 122.186 131.453 122.195C131.437 122.205 131.425 122.219 131.42 122.237C131.414 122.254 131.416 122.273 131.423 122.29C131.431 122.307 131.445 122.32 131.462 122.327C135.048 124.26 136.606 127.956 137.635 131.719C136.672 130.205 135.232 129.279 133.226 130.403C133.123 130.462 133.226 130.624 133.306 130.616C133.989 130.478 134.698 130.555 135.335 130.837C135.972 131.119 136.506 131.591 136.863 132.189C137.466 133.191 137.958 134.256 138.333 135.364C138.473 135.716 139.068 135.599 139.016 135.202V135.114C139.582 130.337 136.591 123.231 131.506 122.187Z" fill="#263238"/>
<path d="M137.51 136.51C137.48 136.732 137.386 136.94 137.238 137.108C137.09 137.276 136.895 137.397 136.679 137.454C136.462 137.511 136.234 137.503 136.022 137.431C135.81 137.358 135.624 137.225 135.489 137.047C135.353 136.869 135.273 136.654 135.259 136.431C135.245 136.207 135.297 135.985 135.41 135.791C135.523 135.598 135.69 135.442 135.891 135.344C136.092 135.245 136.318 135.209 136.54 135.239C136.688 135.258 136.83 135.306 136.959 135.38C137.087 135.454 137.2 135.554 137.29 135.672C137.381 135.79 137.447 135.925 137.484 136.069C137.522 136.213 137.531 136.363 137.51 136.51Z" fill="white"/>
<path d="M134.629 134.114C134.613 134.26 134.553 134.398 134.457 134.51C134.361 134.621 134.234 134.701 134.093 134.74C133.951 134.779 133.801 134.774 133.662 134.727C133.523 134.679 133.401 134.591 133.313 134.474C133.224 134.356 133.173 134.215 133.165 134.069C133.158 133.922 133.194 133.776 133.271 133.651C133.347 133.525 133.459 133.425 133.592 133.363C133.726 133.302 133.874 133.282 134.019 133.306C134.205 133.337 134.372 133.438 134.486 133.588C134.599 133.739 134.651 133.927 134.629 134.114Z" fill="white"/>
<path d="M133.284 111.48C132.939 111.172 104.918 58.6942 102.552 53.8882C101.501 51.7497 116.287 22.7882 134.997 16.8064C148.467 12.4927 170.792 20.6645 174.776 23.1483C179.515 26.0878 190.303 90.2792 190.303 90.2792L158.417 98.5465L133.284 111.48Z" fill="#FFC727"/>
<path opacity="0.7" d="M133.284 111.48C132.939 111.172 104.918 58.6942 102.552 53.8882C101.501 51.7497 116.287 22.7882 134.997 16.8064C148.467 12.4927 170.792 20.6645 174.776 23.1483C179.515 26.0878 190.303 90.2792 190.303 90.2792L158.417 98.5465L133.284 111.48Z" fill="white"/>
<g opacity="0.1">
<path d="M136.709 102.772C136.12 102.123 135.648 101.377 135.313 100.567C134.908 99.759 134.497 98.9506 134.056 98.157C133.16 96.5759 132.145 95.0651 131.021 93.6375C130.139 92.4984 129.081 91.2271 127.626 90.8597C126.999 90.7082 126.342 90.7466 125.737 90.9699C125.334 91.0786 124.955 91.2632 124.62 91.5137C124.388 91.7978 124.172 92.0947 123.974 92.4029C123.907 92.4911 124.054 92.594 124.113 92.5058C124.311 92.0775 124.662 91.7391 125.098 91.5578C125.452 91.4329 125.819 91.3514 126.193 91.3153C126.988 91.2662 127.773 91.5122 128.397 92.0061C129.548 93.0092 130.517 94.2024 131.264 95.5335L133.894 99.4283C134.688 100.604 135.364 102.155 136.562 102.963C136.657 103 136.797 102.868 136.709 102.772Z" fill="black"/>
<path d="M140.325 102.904C138.595 99.6022 136.858 96.3051 135.114 93.0128C133.351 89.7059 131.55 86.2814 130.588 82.6438C130.588 82.5409 130.396 82.5629 130.419 82.6438C131.238 86.3345 132.471 89.9212 134.093 93.3362C135.858 96.7081 137.887 99.9346 140.163 102.985C140.222 103.11 140.383 103.007 140.325 102.904Z" fill="black"/>
<path d="M150.583 94.8868C149.011 92.109 147.152 89.4708 145.322 86.8546C143.723 84.5444 141.831 82.452 139.693 80.6302C139.675 80.621 139.654 80.6182 139.635 80.6221C139.615 80.6261 139.597 80.6367 139.584 80.6521C139.572 80.6675 139.564 80.6869 139.564 80.707C139.564 80.727 139.57 80.7466 139.582 80.7625C141.647 82.754 143.029 85.304 144.624 87.6556C146.373 90.2277 148.122 92.8365 150.098 95.2395C150.148 95.2955 150.217 95.3309 150.291 95.3389C150.366 95.347 150.44 95.3271 150.501 95.2831C150.561 95.239 150.603 95.1741 150.619 95.1009C150.634 95.0276 150.621 94.9513 150.583 94.8868Z" fill="black"/>
<path d="M162.084 66.8439C161.674 66.594 161.213 66.4381 160.735 66.3873C160.257 66.3365 159.774 66.3921 159.32 66.5502C158.866 66.7082 158.453 66.9648 158.11 67.3015C157.767 67.6382 157.503 68.0466 157.337 68.4974C156.448 70.7535 157.065 73.546 157.55 75.8462C158.087 78.3277 158.926 80.734 160.048 83.0112C161.328 85.5812 162.941 87.9706 164.847 90.1174C164.862 90.1315 164.882 90.1399 164.902 90.1411C164.923 90.1423 164.943 90.1363 164.96 90.1241C164.976 90.1119 164.988 90.0942 164.993 90.0742C164.998 90.0542 164.996 90.0331 164.987 90.0146C162.429 86.3109 160.555 82.1795 159.453 77.8156C158.887 75.6765 158.521 73.4894 158.358 71.2826C158.226 69.4381 159.005 66.3442 161.518 67.035C163.877 67.6891 164.7 70.6139 166.31 72.1791C166.354 72.1791 166.405 72.1791 166.368 72.113C164.752 70.4595 164.178 68.0638 162.084 66.8439Z" fill="black"/>
<path d="M180.008 67.623C178.396 71.0045 177.964 74.8286 178.781 78.4844C179.186 80.5195 179.802 82.507 180.618 84.4149C181.353 86.4322 182.286 88.372 183.403 90.2057C183.454 90.2792 183.587 90.2057 183.557 90.1395C183.028 88.1921 182.088 86.377 181.492 84.4369C180.89 82.5024 180.435 80.5248 180.133 78.5212C179.89 76.7485 179.78 74.9603 179.802 73.1713C179.821 71.3608 180.033 69.5576 180.434 67.792C180.442 67.7394 180.432 67.6855 180.406 67.6393C180.379 67.5931 180.338 67.5572 180.288 67.5376C180.239 67.5179 180.184 67.5157 180.133 67.5312C180.082 67.5467 180.038 67.5791 180.008 67.623Z" fill="black"/>
<path d="M173.71 80.7992C172.865 77.6896 171.799 74.6444 170.52 71.6868C170.492 71.6334 170.445 71.5924 170.388 71.5713C170.331 71.5501 170.268 71.5504 170.212 71.572C170.155 71.5936 170.108 71.635 170.08 71.6885C170.051 71.7421 170.044 71.8042 170.058 71.8631C171.042 74.8908 171.843 77.992 172.644 81.0785C173.445 84.1649 174.019 87.2661 175.003 90.257C175.003 90.3526 175.165 90.3011 175.172 90.2129C175.093 87.025 174.602 83.8608 173.71 80.7992Z" fill="black"/>
</g>
<path d="M190.663 83.408C188.731 82.416 163.951 79.9688 154.655 84.0547C146.38 87.6777 131.19 98.98 127.075 103.985C126.399 104.808 131.146 115.368 133.034 116.477C134.144 117.131 151.259 105.726 160.534 101.346C168.441 97.6132 187.364 98.4068 192.133 98.8551C192.846 98.9212 191.824 83.9959 190.663 83.408Z" fill="#FFC727"/>
<path opacity="0.4" d="M190.663 83.408C188.731 82.416 163.951 79.9688 154.655 84.0547C146.38 87.6777 131.19 98.98 127.075 103.985C126.399 104.808 131.146 115.368 133.034 116.477C134.144 117.131 151.259 105.726 160.534 101.346C168.441 97.6132 187.364 98.4068 192.133 98.8551C192.846 98.9212 191.824 83.9959 190.663 83.408Z" fill="white"/>
<path d="M157.168 186.864C157.168 186.864 157.102 177.928 156.433 177.083C155.764 176.237 145.924 169.734 142.022 161.099C141.045 158.894 134.835 167.375 134.835 167.375C136.904 173.265 140.491 178.505 145.234 182.565C153.045 189.179 163.459 189.473 165.81 188.289C166.582 187.907 166.2 172.931 165.854 173.555C164.989 175.23 163.755 176.687 162.246 177.817C161.812 178.156 162.143 186.952 162.143 186.952L157.168 186.864Z" fill="#FFC727"/>
<path opacity="0.7" d="M157.168 186.864C157.168 186.864 157.102 177.928 156.433 177.083C155.764 176.237 145.924 169.734 142.022 161.099C141.045 158.894 134.835 167.375 134.835 167.375C136.904 173.265 140.491 178.505 145.234 182.565C153.045 189.179 163.459 189.473 165.81 188.289C166.582 187.907 166.2 172.931 165.854 173.555C164.989 175.23 163.755 176.687 162.246 177.817C161.812 178.156 162.143 186.952 162.143 186.952L157.168 186.864Z" fill="white"/>
<path d="M118.389 176.473C100.818 191.905 47.9875 253.568 52.0367 273.101C55.0497 287.622 71.2463 291.473 84.915 284.903C96.8126 279.186 122.857 213.885 129.963 195.543C136.709 178.082 135.651 161.305 118.389 176.473Z" fill="#AD6359"/>
<path d="M118.389 176.473C100.818 191.905 47.9875 253.568 52.0367 273.101C55.0497 287.622 71.2463 291.473 84.915 284.903C96.8126 279.186 122.857 213.885 129.963 195.543C136.709 178.082 135.651 161.305 118.389 176.473Z" fill="#FFC727"/>
<g opacity="0.7">
<path d="M118.389 176.473C100.818 191.905 47.9875 253.568 52.0367 273.101C55.0497 287.622 71.2463 291.473 84.915 284.903C96.8126 279.186 122.857 213.885 129.963 195.543C136.709 178.082 135.651 161.305 118.389 176.473Z" fill="white"/>
</g>
<path d="M128.625 200.657C128.625 200.532 128.478 200.452 128.427 200.577C126.597 205.214 124.752 209.829 122.761 214.407C120.769 218.985 118.925 223.615 116.948 228.193C113.029 237.32 108.835 246.325 104.367 255.207C103.118 257.691 101.832 260.153 100.553 262.629C99.2743 265.106 97.8854 267.575 96.6655 270.103C96.6655 270.176 96.739 270.243 96.7831 270.177C98.1867 268.112 99.4287 265.929 100.693 263.776C101.957 261.623 103.162 259.484 104.367 257.309C106.733 252.958 109.063 248.579 111.253 244.133C113.443 239.687 115.603 235.072 117.646 230.486C119.3 226.76 120.909 223.005 122.371 219.198C122.717 218.676 123.055 218.155 123.378 217.618C124.04 216.538 124.679 215.414 125.318 214.348C126.575 212.202 127.677 209.976 128.882 207.808C128.963 207.675 128.728 207.536 128.647 207.675C127.383 209.814 126.024 211.886 124.804 214.054C124.297 214.958 123.79 215.869 123.29 216.78C125.193 211.445 126.957 206.066 128.625 200.657Z" fill="#263238"/>
<path d="M214.37 247.116C215.061 246.491 215.84 244.213 215.84 244.213L218.118 244.581C218.118 244.581 217.935 247.263 216.884 247.829C215.833 248.395 214.37 247.116 214.37 247.116Z" fill="#455A64"/>
<path d="M207.463 263.261C207.073 262.409 205.141 260.961 205.141 260.961L206.184 258.904C206.184 258.904 208.683 259.881 208.911 261.057C209.138 262.232 207.463 263.261 207.463 263.261Z" fill="#455A64"/>
<path d="M207.83 242.06C209.028 244.052 210.226 244.265 210.226 244.265L209.248 246.359C208.5 246.211 207.802 245.875 207.22 245.382C206.638 244.89 206.19 244.258 205.919 243.545L207.83 242.06Z" fill="#455A64"/>
<path d="M203.95 251.437L206.779 249.453C206.779 249.453 206.287 251.702 206.993 252.694C207.698 253.686 207.882 253.723 207.882 253.723L206.522 254.943C206.522 254.943 203.884 253.752 203.95 251.437Z" fill="#455A64"/>
<path d="M210.777 255.516C210.777 255.516 212.247 254.046 212.445 252.885L214.371 253.796C214.371 253.796 213.636 255.707 212.57 255.964L210.777 255.516Z" fill="#455A64"/>
<path d="M213.283 264.797C213.283 264.797 214.753 266.267 215.914 266.465L215.003 268.398C215.003 268.398 213.092 267.663 212.798 266.598L213.283 264.797Z" fill="#455A64"/>
<path d="M216.075 252.9L218.515 252.517C218.481 253.427 218.689 254.33 219.118 255.134L217.597 256.331C216.962 256.051 216.455 255.544 216.173 254.909C215.892 254.275 215.857 253.558 216.075 252.9Z" fill="#455A64"/>
<path d="M213.871 240.884L212.401 238.893C213.227 238.509 213.935 237.91 214.451 237.159L216.215 237.96C216.256 238.651 216.04 239.333 215.606 239.874C215.173 240.414 214.555 240.774 213.871 240.884Z" fill="#455A64"/>
<path d="M65.4261 285.616C48.3477 281.758 53.4477 261.615 63.3097 254.377C86.4509 237.386 122.974 220.999 146.475 214.598C154.559 212.393 181.713 248.564 174.217 253.421C160.901 262.041 100.076 293.45 65.4261 285.616Z" fill="#AD6359"/>
<path d="M135.342 218.331C135.342 218.331 138.068 216.972 151.281 207.47C160.416 200.893 186.871 190.722 213.437 207.903C223.615 214.517 223.439 224.504 211.651 219.544C203.347 216.046 197.895 212.93 194.867 212.533C194.867 212.533 201.481 224.629 197.983 231.816C196.417 235.02 191.949 243.684 187.503 249.931C186.282 249.454 185.092 248.902 183.939 248.277C182.31 250.995 179.946 253.196 177.119 254.626C174.292 256.056 171.117 256.658 167.963 256.361L135.342 218.331Z" fill="#AD6359"/>
<path d="M161.004 202.583C166.883 203.141 179.302 204.523 189.076 209.197C199.93 214.385 219.449 227.297 215.532 235.27C212.666 241.149 204.78 236.843 204.78 236.843C204.78 236.843 211.718 243.875 207.977 248.601C204.56 252.9 198.659 249.225 198.659 249.225C198.659 249.225 202.135 254.215 198.056 257.728C193.14 261.939 186.658 250.783 177.994 250.754C176.054 250.739 161.004 202.583 161.004 202.583Z" fill="#AD6359"/>
<path d="M181.683 219.749C187.122 221.175 198.644 227.583 204.773 236.585C204.913 236.791 204.832 237.004 204.663 236.843C197.706 230.267 189.974 224.561 181.639 219.852C181.63 219.844 181.623 219.833 181.621 219.821C181.618 219.809 181.619 219.796 181.624 219.785C181.629 219.773 181.637 219.764 181.648 219.757C181.659 219.751 181.671 219.748 181.683 219.749Z" fill="#263238"/>
<path d="M176.767 230.861C181.338 232.573 192.934 239.679 198.813 249.041C198.946 249.247 198.85 249.46 198.688 249.291C192.082 242.356 184.711 236.193 176.716 230.919C176.657 230.919 176.708 230.839 176.767 230.861Z" fill="#263238"/>
<path d="M129.257 214.951L139.59 245.286L155.022 270.044C155.022 270.044 68.6523 302.121 56.1521 279.906C51.9339 272.41 52.1985 258.382 67.6308 247.013C83.0632 235.645 129.257 214.951 129.257 214.951Z" fill="#FFC727"/>
<path opacity="0.7" d="M129.257 214.951L139.59 245.286L155.022 270.044C155.022 270.044 68.6523 302.121 56.1521 279.906C51.9339 272.41 52.1985 258.382 67.6308 247.013C83.0632 235.645 129.257 214.951 129.257 214.951Z" fill="white"/>
<path d="M129.882 215.406C127.934 216.068 125.965 216.634 124.003 217.346C122.041 218.059 120.226 218.735 118.352 219.477C114.589 220.947 110.856 222.623 107.189 224.335C100.674 227.439 94.3369 230.903 88.207 234.711C85.2675 235.593 82.3868 236.776 79.4841 237.783C79.3959 237.783 79.4841 237.945 79.5429 237.916C81.9386 237.114 84.3857 236.409 86.7814 235.579C85.1941 236.534 83.6067 237.504 82.0341 238.518C80.1381 239.723 78.3597 241.068 76.4637 242.303C76.3976 242.347 76.4637 242.457 76.5372 242.42C78.2421 241.377 80.0205 240.443 81.7695 239.481C83.5185 238.518 85.3116 237.453 87.0974 236.46C90.6468 234.498 94.2183 232.58 97.8265 230.736C105.021 227.061 110.099 224.409 117.521 221.241C119.601 220.352 121.659 219.419 123.738 218.537C125.818 217.655 127.934 216.663 130.058 215.803C130.293 215.686 130.095 215.325 129.882 215.406Z" fill="#263238"/>
<path d="M71.7166 287.997C84.3565 287.336 96.8346 285.058 109.239 282.655C120.836 280.274 132.454 277.687 143.617 273.704L145.821 272.888C134.387 278.429 121.901 281.508 109.511 284.095C97.0625 286.454 84.3932 288.504 71.6946 287.997H71.7166Z" fill="#263238"/>
<path d="M134.504 211.276C134.203 211.1 115.735 219.676 115.735 219.676C115.735 219.676 142.926 276.298 143.271 276.393C143.616 276.489 162.687 269.045 162.642 268.369C162.598 267.693 134.504 211.276 134.504 211.276Z" fill="#FFC727"/>
<g opacity="0.4">
<path d="M134.504 211.276C134.203 211.1 115.735 219.676 115.735 219.676C115.735 219.676 142.926 276.298 143.271 276.393C143.616 276.489 162.687 269.045 162.642 268.369C162.598 267.693 134.504 211.276 134.504 211.276Z" fill="white"/>
</g>
<path d="M164.134 320.097L162.848 319.398L167.5 310.845H239.988L244.64 319.398L243.346 320.097L239.113 312.314H168.374L164.134 320.097Z" fill="#263238"/>
<path d="M230.552 320.001L227.694 312.314H179.795L176.936 320.001L175.554 319.494L178.766 310.845H228.715L231.927 319.494L230.552 320.001Z" fill="#263238"/>
<path d="M328.533 320.097L324.293 312.314H253.554L249.321 320.097L248.028 319.398L252.68 310.845H325.168L329.819 319.398L328.533 320.097Z" fill="#263238"/>
<path d="M315.739 320.001L312.881 312.314H264.974L262.115 320.001L260.741 319.494L263.953 310.845H313.902L317.113 319.494L315.739 320.001Z" fill="#263238"/>
<path d="M333.957 317.855H159.159V322.412H333.957V317.855Z" fill="#455A64"/>
<g opacity="0.5">
<path d="M209.609 139.479C211.6 146.651 208.874 154.015 204.531 159.762C202.01 163.127 198.012 165.56 195.999 169.249C194.095 172.718 194.713 176.987 196.572 180.331C200.694 187.76 210.13 190.443 217.545 193.272C228.943 197.622 244.243 205.434 242.531 220.132C241.737 226.995 237.181 233.205 232.36 237.886C226.981 243.104 220.477 247.028 213.716 250.217C205.883 253.892 196.491 256.464 194.522 266.149C192.758 274.784 195.256 279.524 200.702 285.822C200.702 285.822 198.879 287.174 198.637 287.035C195.021 284.94 189.436 280.046 186.57 277.062C180.419 271.044 176.422 263.68 180.125 254.685C182.33 249.409 186.416 245.286 189.414 240.51C193.309 234.329 193.823 227.789 188.907 221.895C183.859 215.811 176.216 212.981 170.19 208.043C164.517 203.391 161.768 197.24 162.253 189.892C162.744 183.518 165.106 177.431 169.043 172.394C173.453 166.655 179.508 163.443 186.012 160.555C193.36 157.278 202.098 153.14 203.84 144.388C205.545 135.849 200.298 128.022 195.433 121.556C195.256 121.335 195.594 121.034 195.793 121.232C201.326 126.42 207.499 131.866 209.609 139.479Z" fill="#EBEBEB"/>
</g>
<path d="M260.455 265.187C260.455 265.187 257.324 311.043 242.693 311.043H165.207C150.576 311.043 147.446 265.187 147.446 265.187H260.455Z" fill="#37474F"/>
<path d="M202.444 274.483H158.726V277.371H202.444V274.483Z" fill="#C7C7C7"/>
<path d="M188.885 271.573H162.863C162.031 271.573 161.357 272.247 161.357 273.079V278.775C161.357 279.607 162.031 280.281 162.863 280.281H188.885C189.717 280.281 190.392 279.607 190.392 278.775V273.079C190.392 272.247 189.717 271.573 188.885 271.573Z" fill="#FFC727"/>
<g opacity="0.2">
<path d="M188.885 271.573H162.863C162.031 271.573 161.357 272.247 161.357 273.079V278.775C161.357 279.607 162.031 280.281 162.863 280.281H188.885C189.717 280.281 190.392 279.607 190.392 278.775V273.079C190.392 272.247 189.717 271.573 188.885 271.573Z" fill="black"/>
</g>
<path d="M103.111 287.013V318.406C103.111 320.648 102.273 322.485 101.251 322.485H89.1701H77.0741C76.0526 322.485 75.2222 320.67 75.2222 318.428V287.013C75.2222 284.764 76.0526 282.949 77.0741 282.949H78.1911V280.009H89.1701H100.134V282.949H101.251C102.273 282.949 103.111 284.764 103.111 287.013Z" fill="#FFC727"/>
<path d="M100.898 275.181H77.4045V280.465H100.898V275.181Z" fill="#37474F"/>
<path d="M103.103 293.663H75.2222V313.497H103.103V293.663Z" fill="#EBEBEB"/>
<path d="M72.128 316.951C72.128 321.067 70.5847 322.485 69.7911 322.485H62.8832H56.3943C55.608 322.485 54.0574 321.074 54.05 316.959C54.05 312.072 57.5407 309.147 57.5334 306.479C57.5334 304.738 55.8505 299.336 56.578 299.336H69.5486C70.2834 299.336 68.6079 304.738 68.6079 306.479C68.6079 309.154 72.1206 312.072 72.128 316.951Z" fill="#C7C7C7"/>
<path d="M57.559 295.736L68.5086 295.72C68.9276 295.72 69.3298 295.886 69.6265 296.181C69.9232 296.477 70.0902 296.879 70.0908 297.298L70.0953 300.509C70.0953 300.539 70.0837 300.567 70.0631 300.587C70.0425 300.608 70.0144 300.62 69.9852 300.62L56.0961 300.639C56.0668 300.639 56.0388 300.628 56.0181 300.607C55.9974 300.586 55.9857 300.558 55.9857 300.529L55.9812 297.318C55.9809 297.11 56.0215 296.905 56.1006 296.713C56.1798 296.521 56.2959 296.347 56.4424 296.2C56.5889 296.053 56.7629 295.936 56.9545 295.857C57.1461 295.777 57.3515 295.736 57.559 295.736Z" fill="#37474F"/>
</svg>
