<svg width="250" height="137" viewBox="0 0 250 137" fill="none" xmlns="http://www.w3.org/2000/svg">
<path d="M59.068 53.2466L65.0761 24.8414L202.874 1.00001L197.215 29.7522L59.068 53.2466Z" fill="white" stroke="white"/>
<path d="M102.154 136L105.538 113.306L215.684 96.0947L211.272 118.807L102.154 136Z" fill="white" stroke="white"/>
<path d="M73.3119 44.4757L71.1165 30.2891L73.9698 29.8197L76.1651 44.0063L73.3119 44.4757ZM77.2579 43.8265L76.8157 40.9689C77.1124 40.9201 77.3702 40.753 77.5889 40.4677C77.7443 40.2204 77.8057 39.9471 77.7732 39.6476L76.8136 33.446C76.7717 33.1758 76.6163 32.9312 76.3472 32.7122C76.0979 32.5315 75.8171 32.46 75.5047 32.4975L75.0625 29.6399C76.56 29.3936 77.7967 29.876 78.7726 31.0871C79.2705 31.7118 79.5685 32.3416 79.6668 32.9767L80.6265 39.1782C80.8648 40.7185 80.3613 41.979 79.1158 42.9598C78.4977 43.4355 77.8784 43.7244 77.2579 43.8265ZM87.7198 42.1055L85.5244 27.9189L92.8903 26.7072L93.3294 29.5445L88.8168 30.2869L89.2621 33.1647L91.8725 32.7353L92.3147 35.5929L89.7043 36.0223L90.1308 38.7786L94.6434 38.0362L95.0856 40.8938L87.7198 42.1055ZM101.561 39.8286L99.3658 25.642L102.219 25.1726L103.975 36.5219L108.731 35.7396L109.17 38.5769L101.561 39.8286ZM115.18 37.5883L112.984 23.4016L115.838 22.9323L118.033 37.1189L115.18 37.5883ZM123.941 32.3854L122.884 25.5556C122.763 24.7719 122.935 23.9608 123.4 23.1223C124.016 22.0095 124.977 21.3387 126.284 21.1099L126.726 23.9675C126.162 24.0742 125.838 24.3976 125.756 24.9377C125.737 24.9961 125.731 25.0457 125.737 25.0862L126.794 31.916C126.828 32.1322 126.975 32.3228 127.235 32.4877C127.48 32.6413 127.758 32.6927 128.068 32.6416L128.511 35.4992C127 35.7478 125.762 35.3003 124.796 34.1567C124.318 33.5703 124.033 32.9799 123.941 32.3854ZM129.603 35.3194L129.161 32.4618C129.161 32.4618 129.307 32.3755 129.598 32.2029C129.766 32.0367 129.873 31.8738 129.917 31.714C129.957 31.5273 129.952 31.2718 129.902 30.9475L129.865 30.7043L132.761 30.9137C132.942 32.0892 132.621 33.1397 131.796 34.0652C131.171 34.7638 130.44 35.1818 129.603 35.3194ZM127.819 23.7878L127.377 20.9302C128.362 20.7682 129.319 21.054 130.249 21.7878C131.085 22.4538 131.573 23.2395 131.713 24.1447L129.033 25.3337L128.986 25.0297C128.934 24.6919 128.862 24.4475 128.769 24.2965C128.694 24.1702 128.574 24.0653 128.409 23.9816C128.258 23.8957 128.125 23.8414 128.01 23.8186L127.819 23.7878ZM139.443 33.597L137.247 19.4103L140.1 18.941L142.296 33.1276L139.443 33.597ZM148.16 28.1104L147.128 21.4427C147.017 20.7266 147.208 19.947 147.7 19.1041C148.359 17.9981 149.308 17.3363 150.547 17.1186L150.989 19.9762C150.438 20.0807 150.122 20.4514 150.04 21.0882C150.028 21.1872 150.025 21.257 150.031 21.2976L151.013 27.641C151.099 28.1949 151.461 28.5233 152.099 28.6261C152.198 28.6376 152.267 28.64 152.308 28.6334L152.753 31.5112C151.984 31.6377 151.172 31.4872 150.318 31.0598C149.1 30.4289 148.38 29.4457 148.16 28.1104ZM153.866 31.3281L153.421 28.4503C153.637 28.4148 153.862 28.26 154.096 27.9859C154.317 27.7141 154.409 27.4149 154.372 27.0884L153.391 20.745C153.353 20.5018 153.198 20.2639 152.927 20.0314C152.676 19.8372 152.394 19.7589 152.082 19.7964L151.639 16.9389C153.002 16.7147 154.186 17.1227 155.191 18.1628C155.767 18.7607 156.102 19.3568 156.194 19.9513L157.225 26.619C157.457 28.1188 156.967 29.3771 155.755 30.3939C155.116 30.9146 154.487 31.2261 153.866 31.3281ZM163.505 25.6276L161.915 15.3525L164.768 14.8831L166.358 25.1583C166.457 25.71 166.824 26.0237 167.458 26.0995C167.557 26.111 167.626 26.1134 167.667 26.1068L168.112 28.9846C167.33 29.1133 166.504 28.9651 165.636 28.5398C164.434 27.9202 163.723 26.9495 163.505 25.6276ZM169.205 28.8049L168.76 25.927C169.002 25.8871 169.241 25.7301 169.475 25.456C169.671 25.2021 169.752 24.9186 169.717 24.6057L168.127 14.3305L170.96 13.8645L172.55 24.1396C172.786 25.6664 172.289 26.919 171.057 27.8976C170.443 28.4003 169.826 28.7028 169.205 28.8049ZM178.589 23.8736L181.018 22.5388C181.07 22.8766 181.211 23.1583 181.439 23.384C181.668 23.6096 181.883 23.7474 182.084 23.7974L182.389 23.8927L182.797 26.5273C181.65 26.716 180.595 26.377 179.631 25.5103C179.033 24.9574 178.686 24.4118 178.589 23.8736ZM177.653 16.7537C177.423 15.2674 177.885 14.0485 179.038 13.0968C179.564 12.65 180.082 12.3778 180.592 12.2799L181.006 14.9551C180.684 15.1052 180.472 15.3894 180.371 15.8079C180.335 15.9384 180.328 16.0711 180.349 16.2063C180.435 16.7602 180.92 17.1654 181.803 17.4219C181.991 17.4741 182.293 17.5491 182.709 17.6468C183.397 17.797 183.888 17.931 184.183 18.0487C185.376 18.5175 186.207 19.0597 186.676 19.6754C187.027 20.1579 187.253 20.7234 187.353 21.372C187.543 22.6015 187.241 23.7319 186.446 24.7633C185.767 25.6508 184.922 26.1778 183.91 26.3442L183.502 23.7096C184.018 23.5555 184.346 23.2175 184.487 22.6956C184.548 22.4639 184.558 22.2197 184.519 21.9629C184.412 21.2739 183.812 20.7907 182.717 20.5135C182.516 20.4635 182.201 20.3975 181.774 20.3155C181.276 20.231 180.926 20.157 180.722 20.0935C179.477 19.7304 178.624 19.1364 178.164 18.3114C177.916 17.8674 177.745 17.3481 177.653 16.7537ZM182.119 14.772L181.705 12.0968C182.839 11.9104 183.864 12.2336 184.781 13.0664C185.314 13.5606 185.623 14.0363 185.708 14.4935L183.212 15.7977C183.124 15.2302 182.788 14.8907 182.203 14.779C182.147 14.7743 182.119 14.772 182.119 14.772Z" fill="#A20A0A"/>
<path d="M247.91 21.4374L10.9588 60.7631L1 128.432L238.981 92.2946L247.91 21.4374Z" fill="#BE100F" stroke="#BE100F"/>
<path d="M26.7427 77.5803C27.3208 77.4846 27.9108 77.4168 28.5127 77.3766C29.1146 77.3364 29.6716 77.3854 30.1837 77.5234C30.6959 77.6614 31.1388 77.9222 31.5127 78.3058C31.8842 78.6749 32.1298 79.2282 32.2494 79.9656C32.3691 80.7031 32.3123 81.3138 32.0792 81.7977C31.8437 82.2673 31.5051 82.6499 31.0634 82.9457C30.6217 83.2414 30.1092 83.4672 29.5261 83.6231C28.9429 83.7789 28.3623 83.9046 27.7842 84.0002L22.6248 84.8535L23.5397 90.4927L26.2711 90.0409C26.8348 89.9477 27.4164 89.8738 28.0159 89.8192C28.6155 89.7646 29.1702 89.799 29.6799 89.9226C30.1897 90.0461 30.6315 90.2997 31.0054 90.6833C31.3937 91.0645 31.6512 91.6455 31.7779 92.4263C31.9045 93.2071 31.8513 93.8395 31.6182 94.3235C31.3851 94.8075 31.0465 95.1901 30.6024 95.4714C30.1583 95.7527 29.6435 95.9641 29.058 96.1054C28.4725 96.2468 27.8907 96.3653 27.3127 96.4609L24.5812 96.9126L25.7001 103.81C25.8034 104.446 25.8814 105.064 25.9342 105.664C26.0015 106.262 25.9654 106.817 25.8261 107.33C25.6988 107.826 25.4346 108.256 25.0335 108.619C24.6301 108.968 24.0237 109.209 23.2144 109.343C22.3906 109.479 21.7324 109.447 21.2398 109.247C20.7449 109.032 20.3587 108.709 20.0813 108.28C19.8016 107.836 19.592 107.322 19.4524 106.736C19.3273 106.148 19.2132 105.536 19.11 104.9L15.8024 84.5119C15.7015 83.8902 15.6175 83.2805 15.5502 82.6829C15.4974 82.0829 15.5346 81.5348 15.6619 81.0386C15.7868 80.528 16.0498 80.091 16.4509 79.7278C16.852 79.3645 17.4644 79.1147 18.2882 78.9785L26.7427 77.5803ZM35.9402 84.8785C35.715 83.4904 35.7262 82.2784 35.9737 81.2427C36.2188 80.1926 36.5993 79.2908 37.1152 78.5373C37.6456 77.7815 38.2572 77.1607 38.95 76.6749C39.655 76.1723 40.3463 75.7684 41.024 75.4633C41.7161 75.1559 42.3477 74.9326 42.9187 74.7937C43.4898 74.6547 43.9126 74.5625 44.1872 74.5171L44.9242 74.3952C45.1988 74.3497 45.6287 74.3009 46.2138 74.2487C46.7989 74.1965 47.4608 74.2058 48.1995 74.2766C48.9381 74.3475 49.7137 74.5088 50.5262 74.7604C51.3508 74.9952 52.1194 75.3878 52.8319 75.9381C53.5589 76.4859 54.1973 77.2192 54.747 78.138C55.3088 79.0398 55.7023 80.1848 55.9275 81.5729L58.0317 94.543C58.2639 95.9744 58.2587 97.2225 58.0159 98.2871C57.7875 99.3493 57.4166 100.264 56.903 101.032C56.4039 101.798 55.8031 102.439 55.1005 102.956C54.4099 103.456 53.7259 103.859 53.0482 104.164C52.3705 104.469 51.7462 104.691 51.1751 104.83C50.6041 104.969 50.1813 105.061 49.9067 105.107L49.1696 105.229C48.895 105.274 48.4652 105.323 47.8801 105.375C47.2949 105.427 46.6258 105.419 45.8727 105.351C45.1341 105.28 44.3513 105.12 43.5243 104.871C42.7095 104.605 41.9301 104.192 41.1863 103.632C40.457 103.069 39.8091 102.323 39.2425 101.392C38.676 100.461 38.2766 99.28 38.0444 97.8485L35.9402 84.8785ZM45.3753 97.4824C45.491 98.0126 45.6901 98.4623 45.9725 98.8313C46.219 99.1617 46.5536 99.4404 46.9763 99.6674C47.4134 99.8921 47.9861 99.9459 48.6942 99.8288C49.3879 99.714 49.8992 99.481 50.228 99.1297C50.5569 98.7783 50.7859 98.4064 50.9152 98.0138C51.0518 97.5755 51.0984 97.0853 51.055 96.5431L48.7608 82.4018C48.633 81.8884 48.4339 81.4388 48.1635 81.053C47.9194 80.737 47.5859 80.4655 47.1633 80.2385C46.7383 79.997 46.1789 79.9336 45.4852 80.0483C44.777 80.1654 44.2525 80.4081 43.9115 80.7763C43.5827 81.1276 43.3525 81.4923 43.2209 81.8704C43.0722 82.3256 43.0256 82.8158 43.0811 83.3411L45.3753 97.4824ZM60.3932 80.8343C60.168 79.4462 60.1792 78.2343 60.4267 77.1986C60.6718 76.1485 61.0523 75.2467 61.5682 74.4932C62.0986 73.7374 62.7102 73.1166 63.403 72.6308C64.108 72.1282 64.7993 71.7243 65.477 71.4192C66.1691 71.1117 66.8007 70.8885 67.3717 70.7495C67.9428 70.6105 68.3656 70.5184 68.6402 70.4729L69.3772 70.351C69.6518 70.3056 70.0817 70.2568 70.6668 70.2046C71.2519 70.1524 71.9138 70.1617 72.6524 70.2325C73.3911 70.3034 74.1667 70.4646 74.9792 70.7163C75.8038 70.9511 76.5724 71.3436 77.2849 71.8939C78.0119 72.4418 78.6503 73.1751 79.2 74.0938C79.7618 74.9957 80.1553 76.1407 80.3805 77.5288L82.4847 90.4988C82.7169 91.9303 82.7117 93.1784 82.4689 94.243C82.2405 95.3052 81.8696 96.2203 81.356 96.9882C80.8569 97.7537 80.2561 98.395 79.5535 98.9121C78.8629 99.4123 78.1789 99.815 77.5012 100.12C76.8235 100.425 76.1992 100.647 75.6281 100.786C75.0571 100.925 74.6343 101.017 74.3597 101.063L73.6226 101.185C73.348 101.23 72.9182 101.279 72.333 101.331C71.7479 101.383 71.0788 101.375 70.3257 101.307C69.5871 101.236 68.8043 101.076 67.9773 100.827C67.1625 100.56 66.3831 100.147 65.6393 99.5875C64.91 99.0251 64.2621 98.2786 63.6955 97.3478C63.129 96.417 62.7296 95.2359 62.4974 93.8044L60.3932 80.8343ZM69.8283 93.4383C69.944 93.9685 70.1431 94.4181 70.4255 94.7871C70.672 95.1176 71.0066 95.3963 71.4293 95.6233C71.8664 95.848 72.4391 95.9018 73.1472 95.7846C73.8409 95.6699 74.3522 95.4369 74.681 95.0855C75.0099 94.7342 75.2389 94.3623 75.3682 93.9697C75.5048 93.5314 75.5514 93.0411 75.508 92.499L73.2138 78.3577C73.086 77.8443 72.8869 77.3947 72.6165 77.0089C72.3724 76.6929 72.0389 76.4214 71.6163 76.1944C71.1913 75.9529 70.6319 75.8895 69.9382 76.0042C69.23 76.1213 68.7055 76.364 68.3645 76.7321C68.0357 77.0835 67.8055 77.4482 67.6739 77.8263C67.5252 78.2815 67.4786 78.7717 67.5341 79.297L69.8283 93.4383ZM93.6849 66.5091C95.0001 66.2916 96.2483 66.2559 97.4295 66.4021C98.6252 66.5458 99.6961 66.8809 100.642 67.4074C101.6 67.9171 102.398 68.6241 103.034 69.5285C103.685 70.4304 104.117 71.5393 104.331 72.8551L106.512 86.3024C106.695 87.4302 106.734 88.4482 106.629 89.3564C106.522 90.2501 106.318 91.0486 106.016 91.7517C105.727 92.438 105.366 93.0471 104.933 93.579C104.497 94.0964 104.042 94.5355 103.566 94.8963C102.431 95.767 101.083 96.376 99.5216 96.7233L92.3244 97.9135C91.5007 98.0498 90.8425 98.0176 90.3499 97.817C89.855 97.6019 89.4688 97.2797 89.1914 96.8505C88.9117 96.4068 88.702 95.8921 88.5625 95.3064C88.4374 94.7184 88.3233 94.1062 88.22 93.47L84.9054 73.0389C84.8046 72.4171 84.7205 71.8075 84.6532 71.2098C84.6004 70.6098 84.6376 70.0617 84.7649 69.5656C84.8922 69.0694 85.1575 68.6469 85.561 68.2981C85.9621 67.9348 86.5745 67.6851 87.3983 67.5488L93.6849 66.5091ZM91.5167 72.0791L94.7821 92.2066L97.6002 91.7405C98.217 91.6088 98.7499 91.3722 99.1991 91.0307C99.385 90.896 99.565 90.7252 99.7392 90.5182C99.9134 90.3112 100.061 90.0789 100.183 89.8213C100.302 89.5492 100.378 89.2397 100.41 88.8928C100.458 88.5435 100.446 88.1519 100.376 87.7181L98.2997 74.9216C98.2222 74.4444 98.1036 74.0335 97.9438 73.6887C97.7961 73.3271 97.6205 73.0221 97.417 72.7736C97.2134 72.5252 96.9952 72.3237 96.7624 72.1692C96.5296 72.0147 96.3026 71.8964 96.0815 71.8141C95.5456 71.6207 94.9634 71.5536 94.3349 71.613L91.5167 72.0791ZM142.995 82.3176C142.576 82.3869 142.202 82.3672 141.873 82.2583C141.558 82.1471 141.272 81.9865 141.015 81.7765C140.759 81.5665 140.526 81.3229 140.318 81.0455C140.124 80.7658 139.953 80.4897 139.805 80.2172L133.758 69.0128L133.194 69.106L136.129 87.1947C136.204 87.6574 136.246 88.096 136.253 88.5104C136.261 88.9248 136.19 89.3078 136.039 89.6594C135.901 89.9941 135.651 90.2877 135.292 90.5402C134.944 90.7759 134.438 90.9487 133.773 91.0586C133.022 91.1829 132.415 91.1941 131.953 91.0923C131.489 90.9761 131.124 90.784 130.858 90.5162C130.59 90.234 130.394 89.8952 130.27 89.4999C130.147 89.1046 130.048 88.6756 129.972 88.2129L126.397 66.1768C126.297 65.555 126.213 64.9454 126.145 64.3477C126.092 63.7477 126.13 63.1997 126.257 62.7035C126.384 62.2073 126.642 61.786 127.031 61.4396C127.432 61.0763 128.038 60.8277 128.847 60.6939L131.795 60.2063C132.287 60.125 132.702 60.0786 133.041 60.067C133.393 60.0386 133.731 60.1089 134.055 60.278C134.377 60.4326 134.713 60.7186 135.062 61.1359C135.426 61.5508 135.844 62.1573 136.315 62.9554C136.798 63.7367 137.37 64.7482 138.031 65.9899C138.69 67.2171 139.5 68.7313 140.46 70.5324L141.305 72.1743L141.825 72.0883L142.167 69.8046C142.464 67.8847 142.72 66.2612 142.935 64.9339C143.15 63.6066 143.351 62.5118 143.538 61.6495C143.722 60.7727 143.902 60.0971 144.077 59.6227C144.264 59.1315 144.479 58.7619 144.721 58.5141C144.975 58.2494 145.265 58.0751 145.593 57.9912C145.918 57.8928 146.32 57.8042 146.797 57.7253L149.962 57.2019C150.771 57.0681 151.416 57.1099 151.896 57.3274C152.389 57.528 152.774 57.8429 153.051 58.2722C153.329 58.7014 153.53 59.2101 153.655 59.7981C153.794 60.3838 153.915 60.9875 154.016 61.6092L157.59 83.6453C157.666 84.108 157.707 84.5466 157.715 84.961C157.723 85.3755 157.644 85.7596 157.479 86.1136C157.311 86.4531 157.026 86.7527 156.623 87.0124C156.218 87.2576 155.639 87.4423 154.888 87.5666C154.223 87.6766 153.681 87.6771 153.263 87.5681C152.857 87.4422 152.528 87.2442 152.276 86.9741C152.037 86.687 151.855 86.3459 151.732 85.9506C151.608 85.5552 151.509 85.1262 151.434 84.6635L148.499 66.5748L147.892 66.6752L145.745 79.2349C145.676 79.5432 145.594 79.8611 145.499 80.1887C145.404 80.5162 145.268 80.8208 145.091 81.1025C144.914 81.3841 144.694 81.6284 144.431 81.8353C144.167 82.0421 143.833 82.179 143.429 82.2459L142.995 82.3176ZM171.553 53.631C172.131 53.5354 172.72 53.4603 173.319 53.4057C173.919 53.3511 174.474 53.3856 174.983 53.5091C175.493 53.6327 175.934 53.879 176.305 54.2481C176.675 54.6028 176.919 55.1489 177.039 55.8863C177.158 56.6237 177.1 57.2272 176.865 57.6967C176.627 58.1518 176.286 58.5199 175.842 58.8012C175.398 59.0825 174.883 59.2939 174.298 59.4353C173.712 59.5766 173.13 59.6951 172.552 59.7907L167.393 60.644L168.35 66.5434L171.081 66.0917C171.66 65.9961 172.241 65.9222 172.826 65.87C173.423 65.8009 173.963 65.8305 174.443 65.9588C174.936 66.0703 175.36 66.3046 175.715 66.6617C176.067 67.0043 176.301 67.5298 176.416 68.2383C176.533 68.9613 176.479 69.5419 176.253 69.9801C176.028 70.4183 175.7 70.7769 175.27 71.0558C174.853 71.3179 174.351 71.5196 173.766 71.6609C173.192 71.7855 172.617 71.8955 172.039 71.9911L169.307 72.4429L170.32 78.6893L175.48 77.8361C176.058 77.7404 176.647 77.6653 177.246 77.6107C177.846 77.5561 178.401 77.5906 178.91 77.7141C179.418 77.8232 179.857 78.0623 180.229 78.4315C180.598 78.7861 180.841 79.325 180.958 80.0479C181.08 80.7998 181.016 81.4117 180.767 81.8836C180.531 82.3531 180.191 82.7285 179.747 83.0098C179.303 83.2912 178.788 83.5025 178.203 83.6439C177.617 83.7852 177.043 83.9025 176.479 83.9958L167.981 85.4012C167.172 85.535 166.52 85.4944 166.025 85.2793C165.544 85.0618 165.166 84.7384 164.888 84.3092C164.608 83.8655 164.399 83.3508 164.259 82.7652C164.134 82.1771 164.021 81.5722 163.92 80.9504L160.613 60.5627C160.512 59.941 160.428 59.3313 160.36 58.7337C160.308 58.1336 160.345 57.5856 160.472 57.0894C160.597 56.5788 160.853 56.143 161.24 55.7821C161.641 55.4188 162.246 55.1703 163.055 55.0364L171.553 53.631ZM201.47 70.6425L201.99 70.5565L199.07 52.5545C198.995 52.0918 198.953 51.6533 198.945 51.2388C198.935 50.81 198.999 50.4282 199.138 50.0934C199.291 49.7563 199.541 49.4699 199.889 49.2343C200.248 48.9818 200.761 48.8006 201.426 48.6906C202.163 48.5687 202.756 48.5671 203.206 48.6858C203.667 48.7876 204.031 48.9724 204.297 49.2402C204.563 49.508 204.759 49.8467 204.885 50.2565C205.008 50.6518 205.108 51.0808 205.183 51.5435L208.751 73.5362C208.854 74.1724 208.932 74.7906 208.985 75.3906C209.052 75.9882 209.023 76.5423 208.898 77.0529C208.786 77.5467 208.529 77.9752 208.127 78.3385C207.738 78.6849 207.147 78.9239 206.352 79.0553L203.49 79.5286C202.811 79.6409 202.219 79.6052 201.714 79.4214C201.222 79.2208 200.793 78.9576 200.429 78.6318C200.062 78.2916 199.75 77.9274 199.495 77.5391C199.253 77.1485 199.058 76.8169 198.91 76.5445L189.485 59.8856L188.965 59.9716L191.885 77.9735C191.96 78.4362 192.003 78.882 192.013 79.3109C192.021 79.7253 191.949 80.1011 191.796 80.4382C191.657 80.7729 191.408 81.0665 191.048 81.3191C190.7 81.5547 190.194 81.7275 189.529 81.8375C188.778 81.9617 188.171 81.973 187.71 81.8712C187.246 81.7549 186.88 81.5629 186.614 81.2951C186.348 81.0273 186.154 80.6957 186.03 80.3004C185.904 79.8907 185.804 79.4544 185.729 78.9917L182.161 56.999C182.06 56.3773 181.976 55.7676 181.909 55.17C181.853 54.5555 181.89 54.0002 182.017 53.504C182.142 52.9934 182.399 52.5649 182.788 52.2184C183.189 51.8551 183.794 51.6066 184.603 51.4727L187.465 50.9995C188.187 50.88 188.796 50.9278 189.291 51.1429C189.798 51.3411 190.223 51.5826 190.566 51.8674C190.947 52.2052 191.273 52.6116 191.543 53.0866L201.47 70.6425ZM211.506 52.1013C211.405 51.4795 211.336 50.8674 211.297 50.265C211.273 49.6602 211.339 49.1074 211.496 48.6064C211.666 48.1031 211.968 47.6746 212.4 47.321C212.83 46.953 213.464 46.6996 214.302 46.561C215.141 46.4224 215.822 46.4582 216.345 46.6685C216.881 46.862 217.303 47.1709 217.609 47.5954C217.93 48.0175 218.167 48.5201 218.321 49.1034C218.475 49.6867 218.602 50.2892 218.703 50.911L221.476 68.002C221.623 68.631 221.844 69.1734 222.141 69.6292C222.263 69.8317 222.412 70.0223 222.589 70.2008C222.767 70.3793 222.962 70.5326 223.176 70.6606C223.404 70.7862 223.657 70.878 223.933 70.9362C224.222 70.9776 224.54 70.9696 224.886 70.9122C225.233 70.8548 225.537 70.7601 225.797 70.6279C226.056 70.4813 226.266 70.3129 226.428 70.1228C226.604 69.9303 226.748 69.7208 226.86 69.4945C226.972 69.2682 227.053 69.0394 227.105 68.8082C227.242 68.2807 227.273 67.6965 227.199 67.0555L224.426 49.9645C224.325 49.3427 224.256 48.7306 224.217 48.1282C224.179 47.5258 224.238 46.9742 224.394 46.4732C224.565 45.9699 224.866 45.5414 225.299 45.1878C225.729 44.8198 226.37 44.5652 227.223 44.4242C228.061 44.2856 228.742 44.3214 229.266 44.5317C229.787 44.7276 230.201 45.0377 230.507 45.4622C230.828 45.8843 231.065 46.3869 231.219 46.9702C231.388 47.5511 231.523 48.1524 231.623 48.7742L234.305 65.3013C234.549 66.805 234.516 68.1615 234.208 69.3706C233.914 70.5773 233.381 71.6379 232.61 72.5524C231.85 73.4501 230.88 74.1969 229.701 74.7929C228.533 75.372 227.205 75.7846 225.717 76.0308C224.214 76.2794 222.816 76.3101 221.525 76.1228C220.23 75.9211 219.073 75.5112 218.053 74.893C217.047 74.2725 216.207 73.4389 215.533 72.3924C214.873 71.3434 214.424 70.0887 214.187 68.6283L211.506 52.1013Z" fill="white"/>
<path d="M109.324 120.84C109.356 121.043 109.438 121.218 109.571 121.367C109.708 121.511 109.878 121.642 110.081 121.761C110.289 121.88 110.521 121.993 110.776 122.1C111.031 122.202 111.292 122.313 111.559 122.433C111.831 122.548 112.097 122.678 112.357 122.824C112.618 122.97 112.858 123.143 113.076 123.344C113.295 123.545 113.481 123.78 113.635 124.049C113.789 124.318 113.895 124.634 113.953 124.996L113.96 125.054C114.013 125.451 114.011 125.803 113.953 126.112C113.895 126.421 113.801 126.693 113.67 126.929C113.538 127.164 113.376 127.367 113.181 127.538C112.987 127.703 112.776 127.844 112.55 127.959C112.329 128.074 112.1 128.166 111.863 128.234C111.63 128.301 111.408 128.352 111.196 128.387L111.123 128.397C110.712 128.455 110.347 128.465 110.026 128.426C109.706 128.387 109.426 128.316 109.185 128.212C108.944 128.103 108.737 127.969 108.563 127.811C108.394 127.652 108.254 127.485 108.142 127.308C108.029 127.127 107.941 126.945 107.877 126.761C107.814 126.578 107.771 126.404 107.749 126.239C107.727 126.07 107.736 125.918 107.777 125.784C107.819 125.65 107.88 125.538 107.962 125.448C108.048 125.352 108.148 125.276 108.264 125.22C108.385 125.164 108.513 125.126 108.648 125.107C108.774 125.089 108.905 125.09 109.04 125.111C109.181 125.13 109.31 125.174 109.427 125.241C109.548 125.303 109.651 125.392 109.736 125.508C109.824 125.619 109.882 125.756 109.908 125.92C109.966 126.282 110.081 126.52 110.254 126.633C110.426 126.742 110.657 126.776 110.947 126.735C111.092 126.71 111.223 126.675 111.34 126.628C111.461 126.577 111.56 126.506 111.637 126.417C111.713 126.322 111.766 126.206 111.797 126.068C111.832 125.925 111.837 125.752 111.81 125.549C111.776 125.297 111.688 125.078 111.545 124.891C111.407 124.703 111.235 124.535 111.028 124.387C110.821 124.239 110.589 124.104 110.331 123.982C110.073 123.856 109.811 123.732 109.543 123.612C109.276 123.487 109.012 123.357 108.753 123.221C108.498 123.079 108.262 122.92 108.047 122.743C107.831 122.567 107.649 122.363 107.5 122.132C107.356 121.901 107.261 121.629 107.215 121.315L107.199 121.199C107.135 120.68 107.146 120.24 107.231 119.878C107.321 119.515 107.48 119.214 107.71 118.974C107.944 118.734 108.244 118.546 108.61 118.411C108.976 118.271 109.403 118.166 109.891 118.097L110.08 118.071C110.525 118.008 110.908 118.004 111.23 118.057C111.553 118.11 111.825 118.197 112.048 118.319C112.276 118.439 112.461 118.586 112.602 118.759C112.747 118.93 112.862 119.104 112.944 119.28C113.026 119.456 113.085 119.622 113.121 119.78C113.157 119.938 113.181 120.065 113.194 120.162C113.213 120.307 113.202 120.444 113.16 120.573C113.122 120.697 113.06 120.807 112.974 120.903C112.893 120.998 112.791 121.079 112.667 121.146C112.547 121.207 112.412 121.248 112.262 121.269C112.146 121.286 112.027 121.28 111.905 121.253C111.783 121.221 111.671 121.175 111.569 121.115C111.468 121.056 111.382 120.984 111.312 120.9C111.241 120.812 111.199 120.719 111.186 120.622C111.134 120.225 111.025 119.959 110.859 119.825C110.698 119.69 110.48 119.642 110.204 119.681C110.074 119.699 109.947 119.724 109.823 119.756C109.704 119.788 109.601 119.844 109.513 119.926C109.429 120.002 109.368 120.112 109.328 120.255C109.292 120.398 109.291 120.593 109.324 120.84ZM117.076 123.032L119.383 122.707L117.793 118.966L117.634 118.989L117.076 123.032ZM121.725 123.102C121.778 123.43 121.835 123.764 121.895 124.106C121.955 124.448 122.006 124.778 122.049 125.098L122.078 125.315C122.102 125.499 122.118 125.679 122.127 125.856C122.14 126.026 122.124 126.186 122.08 126.336C122.035 126.48 121.95 126.603 121.826 126.704C121.701 126.806 121.516 126.874 121.269 126.909C121.018 126.944 120.819 126.93 120.673 126.867C120.526 126.804 120.41 126.709 120.325 126.583C120.244 126.456 120.185 126.307 120.147 126.135C120.114 125.962 120.086 125.783 120.061 125.599L119.927 124.583L117.026 124.992L117.16 126.008C117.185 126.192 117.201 126.372 117.21 126.548C117.223 126.724 117.205 126.884 117.155 127.03C117.11 127.174 117.026 127.297 116.901 127.398C116.777 127.499 116.589 127.568 116.337 127.603C116.086 127.639 115.887 127.625 115.741 127.562C115.595 127.498 115.481 127.403 115.4 127.277C115.319 127.145 115.262 126.995 115.23 126.827C115.197 126.655 115.168 126.476 115.144 126.292L115.115 126.074C115.095 125.924 115.074 125.765 115.052 125.595C115.034 125.425 115.016 125.253 114.998 125.078C114.98 124.903 114.962 124.73 114.944 124.56C114.926 124.385 114.909 124.22 114.893 124.064C115.023 123.188 115.164 122.3 115.316 121.401C115.467 120.497 115.607 119.605 115.737 118.724C115.761 118.538 115.797 118.358 115.843 118.184C115.888 118.005 115.958 117.847 116.053 117.71C116.148 117.569 116.277 117.449 116.442 117.352C116.605 117.25 116.823 117.18 117.094 117.142L117.819 117.04C118.085 117.002 118.31 117.01 118.494 117.063C118.683 117.11 118.841 117.189 118.969 117.299C119.096 117.405 119.202 117.538 119.288 117.698C119.377 117.853 119.46 118.017 119.537 118.188L121.725 123.102ZM127.581 115.664C127.721 115.645 127.86 115.65 127.997 115.68C128.133 115.71 128.256 115.759 128.363 115.828C128.476 115.896 128.569 115.984 128.642 116.092C128.715 116.195 128.76 116.312 128.777 116.443C128.786 116.506 128.789 116.567 128.787 116.626C128.789 116.68 128.788 116.73 128.784 116.774C128.777 116.83 128.771 116.877 128.766 116.918C128.609 118.256 128.44 119.624 128.261 121.02C128.081 122.411 127.912 123.774 127.754 125.107C127.703 125.282 127.625 125.441 127.521 125.584C127.434 125.71 127.315 125.83 127.163 125.945C127.015 126.055 126.82 126.127 126.578 126.161L126.346 126.193C126.104 126.227 125.895 126.212 125.719 126.148C125.543 126.08 125.396 125.997 125.28 125.9C125.143 125.791 125.029 125.659 124.94 125.504L121.833 117.894C121.813 117.858 121.795 117.813 121.778 117.762C121.741 117.668 121.715 117.561 121.699 117.44C121.681 117.309 121.692 117.184 121.73 117.066C121.773 116.941 121.837 116.831 121.923 116.735C122.009 116.639 122.114 116.558 122.238 116.491C122.362 116.424 122.499 116.38 122.649 116.359C122.881 116.327 123.074 116.351 123.228 116.433C123.386 116.514 123.515 116.612 123.614 116.726C123.725 116.859 123.814 117.014 123.882 117.191C123.971 117.416 124.069 117.671 124.176 117.956C124.282 118.237 124.39 118.53 124.499 118.835C124.608 119.14 124.719 119.453 124.83 119.772C124.946 120.086 125.055 120.392 125.158 120.688C125.403 121.383 125.65 122.095 125.9 122.824L126.132 122.792C126.197 122.018 126.259 121.262 126.319 120.524C126.341 120.21 126.365 119.887 126.389 119.553C126.418 119.213 126.446 118.882 126.472 118.557C126.498 118.233 126.523 117.921 126.547 117.622C126.571 117.318 126.592 117.046 126.609 116.807C126.633 116.617 126.682 116.442 126.754 116.284C126.82 116.146 126.916 116.017 127.043 115.896C127.169 115.774 127.349 115.697 127.581 115.664ZM133.658 114.808C133.852 114.781 134.049 114.761 134.249 114.747C134.449 114.734 134.633 114.75 134.802 114.795C134.97 114.84 135.115 114.926 135.235 115.052C135.354 115.173 135.43 115.357 135.463 115.604C135.496 115.851 135.471 116.052 135.388 116.207C135.304 116.356 135.187 116.476 135.037 116.567C134.886 116.657 134.713 116.723 134.516 116.766C134.32 116.808 134.125 116.843 133.932 116.87L132.206 117.113L132.467 119.088L133.381 118.96C133.575 118.932 133.769 118.912 133.964 118.9C134.164 118.881 134.343 118.896 134.502 118.942C134.665 118.983 134.804 119.065 134.918 119.187C135.032 119.304 135.105 119.481 135.137 119.718C135.169 119.96 135.145 120.153 135.066 120.298C134.986 120.442 134.874 120.559 134.728 120.649C134.586 120.733 134.417 120.796 134.221 120.838C134.029 120.875 133.836 120.907 133.643 120.935L132.729 121.063L133.006 123.154L134.732 122.911C134.926 122.884 135.123 122.864 135.323 122.85C135.523 122.837 135.707 122.853 135.876 122.898C136.044 122.938 136.188 123.022 136.308 123.148C136.427 123.269 136.503 123.451 136.535 123.693C136.568 123.944 136.541 124.148 136.454 124.303C136.371 124.458 136.254 124.58 136.103 124.671C135.953 124.761 135.779 124.827 135.583 124.87C135.387 124.912 135.194 124.947 135.006 124.973L132.163 125.374C131.892 125.412 131.675 125.393 131.512 125.317C131.354 125.241 131.231 125.13 131.143 124.985C131.054 124.835 130.99 124.661 130.949 124.465C130.913 124.268 130.881 124.065 130.853 123.857L129.949 117.032C129.921 116.824 129.899 116.62 129.883 116.42C129.871 116.22 129.888 116.037 129.936 115.873C129.982 115.703 130.071 115.56 130.204 115.443C130.341 115.325 130.545 115.247 130.815 115.209L133.658 114.808ZM142.9 115.193C142.872 114.984 142.855 114.78 142.848 114.579C142.846 114.377 142.873 114.193 142.93 114.027C142.992 113.861 143.096 113.72 143.244 113.606C143.391 113.486 143.604 113.407 143.885 113.368C144.165 113.328 144.391 113.345 144.564 113.42C144.74 113.489 144.878 113.595 144.976 113.739C145.078 113.882 145.152 114.052 145.198 114.248C145.244 114.443 145.28 114.645 145.308 114.853L146.066 120.575C146.109 120.786 146.177 120.968 146.272 121.123C146.31 121.191 146.358 121.256 146.416 121.317C146.473 121.378 146.537 121.431 146.607 121.475C146.681 121.519 146.764 121.551 146.856 121.573C146.952 121.589 147.058 121.589 147.174 121.573C147.29 121.556 147.392 121.527 147.48 121.485C147.567 121.438 147.639 121.384 147.694 121.322C147.755 121.259 147.805 121.19 147.845 121.116C147.884 121.041 147.913 120.965 147.933 120.889C147.983 120.714 147.999 120.519 147.981 120.305L147.223 114.584C147.195 114.375 147.178 114.171 147.171 113.97C147.164 113.768 147.189 113.585 147.246 113.419C147.307 113.253 147.412 113.112 147.559 112.998C147.706 112.878 147.922 112.799 148.207 112.759C148.488 112.719 148.714 112.736 148.886 112.811C149.058 112.88 149.193 112.987 149.291 113.131C149.394 113.274 149.468 113.444 149.513 113.64C149.564 113.835 149.603 114.036 149.63 114.244L150.364 119.777C150.43 120.28 150.407 120.733 150.292 121.133C150.183 121.533 149.995 121.883 149.729 122.181C149.468 122.475 149.138 122.716 148.739 122.905C148.345 123.089 147.899 123.216 147.401 123.286C146.898 123.357 146.432 123.356 146.004 123.283C145.575 123.206 145.194 123.06 144.86 122.845C144.531 122.63 144.259 122.346 144.045 121.991C143.835 121.636 143.698 121.214 143.633 120.725L142.9 115.193ZM154.463 118.149L154.774 120.502C154.802 120.71 154.822 120.914 154.833 121.115C154.85 121.315 154.832 121.497 154.78 121.662C154.733 121.827 154.641 121.968 154.504 122.086C154.366 122.199 154.157 122.275 153.877 122.315C153.606 122.353 153.39 122.336 153.228 122.266C153.07 122.189 152.947 122.078 152.858 121.933C152.77 121.788 152.706 121.617 152.665 121.42C152.629 121.223 152.597 121.021 152.57 120.812L151.661 113.958C151.634 113.75 151.612 113.546 151.595 113.346C151.583 113.146 151.601 112.963 151.648 112.799C151.695 112.635 151.785 112.496 151.918 112.384C152.055 112.266 152.259 112.188 152.53 112.15L154.923 111.812C155.526 111.757 156.08 111.807 156.583 111.963C156.799 112.031 157.011 112.125 157.219 112.243C157.431 112.361 157.627 112.516 157.805 112.708C157.987 112.894 158.144 113.126 158.274 113.404C158.404 113.677 158.493 114.002 158.544 114.379C158.612 114.897 158.59 115.364 158.478 115.779C158.37 116.189 158.178 116.548 157.904 116.858C157.634 117.163 157.286 117.414 156.859 117.612C156.436 117.805 155.947 117.94 155.391 118.019L154.463 118.149ZM155.22 116.282C155.46 116.234 155.67 116.145 155.85 116.016C155.926 115.961 155.998 115.894 156.067 115.815C156.135 115.737 156.194 115.645 156.244 115.539C156.294 115.428 156.326 115.303 156.342 115.163C156.363 115.022 156.362 114.864 156.339 114.69C156.317 114.525 156.279 114.385 156.224 114.27C156.173 114.149 156.113 114.048 156.044 113.97C155.974 113.886 155.898 113.817 155.817 113.765C155.736 113.712 155.654 113.669 155.571 113.637C155.375 113.571 155.162 113.544 154.933 113.557L153.874 113.706L154.234 116.421L155.22 116.282ZM169.457 109.765C169.651 109.738 169.845 109.718 170.04 109.705C170.241 109.691 170.425 109.707 170.593 109.753C170.762 109.798 170.904 109.884 171.019 110.011C171.139 110.132 171.215 110.316 171.247 110.563C171.28 110.805 171.254 111.003 171.171 111.158C171.092 111.307 170.978 111.427 170.827 111.517C170.677 111.607 170.504 111.676 170.308 111.723C170.116 111.765 169.924 111.8 169.731 111.827L168.991 111.931L169.845 118.379C169.873 118.587 169.893 118.791 169.904 118.992C169.921 119.191 169.906 119.373 169.859 119.538C169.811 119.702 169.719 119.844 169.582 119.961C169.445 120.075 169.238 120.15 168.962 120.189C168.687 120.228 168.468 120.212 168.306 120.141C168.143 120.066 168.018 119.955 167.929 119.81C167.841 119.664 167.777 119.493 167.736 119.297C167.7 119.1 167.668 118.897 167.64 118.689L166.786 112.242L166.046 112.346C165.853 112.373 165.656 112.393 165.456 112.407C165.26 112.415 165.078 112.396 164.909 112.351C164.741 112.305 164.597 112.222 164.477 112.101C164.362 111.974 164.288 111.79 164.256 111.548C164.223 111.301 164.246 111.103 164.325 110.954C164.408 110.799 164.525 110.677 164.675 110.586C164.826 110.496 164.997 110.43 165.188 110.388C165.385 110.346 165.58 110.311 165.773 110.284L169.457 109.765ZM172.304 112.293C172.243 111.828 172.258 111.424 172.35 111.08C172.442 110.732 172.578 110.435 172.757 110.187C172.94 109.94 173.15 109.738 173.386 109.581C173.625 109.419 173.859 109.29 174.088 109.194C174.321 109.097 174.534 109.027 174.725 108.986C174.917 108.944 175.058 108.916 175.15 108.904L175.397 108.869C175.489 108.856 175.632 108.843 175.827 108.83C176.023 108.818 176.243 108.826 176.488 108.856C176.734 108.885 176.99 108.945 177.258 109.036C177.531 109.12 177.783 109.257 178.015 109.447C178.252 109.635 178.457 109.885 178.631 110.196C178.81 110.501 178.93 110.886 178.991 111.351L179.567 115.692C179.63 116.172 179.616 116.588 179.525 116.941C179.439 117.293 179.306 117.595 179.128 117.847C178.955 118.099 178.748 118.308 178.509 118.474C178.275 118.636 178.043 118.765 177.814 118.861C177.586 118.957 177.376 119.026 177.184 119.068C176.993 119.11 176.851 119.137 176.759 119.15L176.513 119.185C176.421 119.198 176.277 119.211 176.082 119.223C175.887 119.236 175.664 119.228 175.414 119.199C175.168 119.169 174.909 119.11 174.636 119.02C174.368 118.925 174.112 118.781 173.87 118.588C173.633 118.395 173.424 118.141 173.244 117.826C173.065 117.511 172.943 117.114 172.88 116.635L172.304 112.293ZM175.324 116.571C175.357 116.749 175.419 116.9 175.51 117.026C175.589 117.138 175.698 117.234 175.836 117.313C175.979 117.391 176.17 117.414 176.406 117.38C176.639 117.348 176.811 117.274 176.924 117.159C177.037 117.045 177.117 116.923 177.163 116.793C177.213 116.648 177.233 116.485 177.224 116.303L176.597 111.569C176.559 111.397 176.497 111.246 176.411 111.115C176.333 111.008 176.224 110.914 176.086 110.835C175.947 110.751 175.761 110.726 175.529 110.758C175.292 110.792 175.115 110.869 174.998 110.989C174.885 111.103 174.805 111.223 174.757 111.348C174.703 111.498 174.683 111.662 174.697 111.837L175.324 116.571ZM188.43 110.879C188.618 110.778 188.827 110.697 189.055 110.635C189.287 110.568 189.495 110.522 189.679 110.496C189.853 110.471 190.049 110.463 190.267 110.472C190.485 110.481 190.709 110.518 190.939 110.584C191.169 110.646 191.398 110.739 191.627 110.865C191.855 110.99 192.065 111.158 192.255 111.368C192.445 111.573 192.609 111.826 192.747 112.127C192.885 112.428 192.982 112.782 193.035 113.188C193.097 113.653 193.101 114.074 193.048 114.451C192.998 114.823 192.907 115.154 192.773 115.444C192.644 115.734 192.478 115.986 192.275 116.202C192.076 116.413 191.856 116.592 191.615 116.739C191.378 116.886 191.128 117.002 190.863 117.089C190.599 117.176 190.336 117.237 190.075 117.274C189.79 117.314 189.483 117.32 189.154 117.293C188.829 117.26 188.515 117.188 188.209 117.078C187.908 116.963 187.634 116.807 187.386 116.61C187.143 116.408 186.962 116.155 186.843 115.851C186.798 115.739 186.768 115.625 186.753 115.508C186.737 115.387 186.739 115.271 186.758 115.16C186.777 115.044 186.815 114.94 186.872 114.848C186.933 114.751 187.014 114.67 187.114 114.607C187.213 114.539 187.338 114.494 187.487 114.473C187.686 114.445 187.877 114.475 188.061 114.562C188.25 114.649 188.417 114.801 188.564 115.017C188.6 115.066 188.652 115.12 188.719 115.18C188.791 115.239 188.879 115.29 188.983 115.335C189.092 115.378 189.22 115.412 189.366 115.436C189.511 115.455 189.676 115.452 189.86 115.426C190.14 115.386 190.364 115.31 190.531 115.198C190.703 115.08 190.832 114.941 190.919 114.781C191.006 114.621 191.057 114.446 191.071 114.256C191.091 114.066 191.088 113.877 191.063 113.688C191.031 113.451 190.963 113.254 190.858 113.096C190.753 112.933 190.623 112.806 190.468 112.714C190.317 112.617 190.151 112.554 189.97 112.526C189.788 112.492 189.608 112.488 189.429 112.513C189.275 112.535 189.123 112.578 188.974 112.644C188.829 112.704 188.682 112.769 188.534 112.839C188.391 112.908 188.244 112.976 188.096 113.041C187.946 113.102 187.789 113.144 187.625 113.167C187.513 113.182 187.401 113.186 187.286 113.177C187.172 113.169 187.067 113.139 186.971 113.089C186.875 113.033 186.791 112.956 186.719 112.858C186.652 112.759 186.607 112.625 186.585 112.455L186.476 108.403C186.472 108.295 186.476 108.181 186.49 108.06C186.508 107.935 186.541 107.816 186.591 107.706C186.645 107.595 186.721 107.5 186.819 107.422C186.921 107.339 187.057 107.285 187.226 107.261L190.127 106.853C190.306 106.827 190.489 106.812 190.675 106.805C190.866 106.798 191.039 106.818 191.193 106.865C191.352 106.912 191.486 106.997 191.596 107.119C191.71 107.236 191.782 107.409 191.812 107.636C191.843 107.868 191.819 108.059 191.74 108.208C191.666 108.357 191.559 108.475 191.418 108.564C191.282 108.653 191.121 108.72 190.935 108.766C190.754 108.811 190.574 108.846 190.395 108.871L188.654 109.116C188.615 109.122 188.577 109.13 188.539 109.14C188.505 109.145 188.475 109.159 188.449 109.182C188.427 109.205 188.409 109.24 188.396 109.286C188.386 109.327 188.384 109.386 188.39 109.464L188.43 110.879ZM193.703 109.307C193.641 108.838 193.653 108.429 193.74 108.082C193.831 107.729 193.966 107.429 194.145 107.182C194.325 106.934 194.531 106.73 194.766 106.569C195.001 106.408 195.233 106.279 195.461 106.183C195.695 106.086 195.905 106.017 196.091 105.975C196.283 105.934 196.424 105.906 196.516 105.893L196.763 105.859C196.855 105.846 196.998 105.833 197.194 105.82C197.389 105.807 197.607 105.816 197.847 105.846C198.093 105.876 198.347 105.936 198.61 106.027C198.878 106.118 199.128 106.258 199.36 106.447C199.597 106.635 199.803 106.887 199.977 107.203C200.152 107.514 200.27 107.904 200.332 108.374L200.9 112.657C200.964 113.141 200.953 113.562 200.868 113.919C200.782 114.276 200.65 114.583 200.472 114.84C200.299 115.092 200.095 115.298 199.86 115.459C199.63 115.62 199.401 115.751 199.173 115.852C198.95 115.947 198.742 116.016 198.55 116.058C198.359 116.1 198.217 116.127 198.125 116.14L197.879 116.175C197.787 116.188 197.643 116.2 197.448 116.213C197.258 116.225 197.037 116.217 196.787 116.188C196.541 116.153 196.284 116.091 196.016 116.001C195.748 115.91 195.495 115.768 195.258 115.575C195.02 115.377 194.811 115.118 194.63 114.798C194.455 114.478 194.335 114.075 194.271 113.591L193.703 109.307ZM196.7 113.634C196.737 113.801 196.803 113.945 196.897 114.064C196.975 114.167 197.083 114.258 197.222 114.337C197.364 114.41 197.549 114.431 197.776 114.399C197.999 114.368 198.167 114.297 198.28 114.188C198.393 114.073 198.474 113.956 198.522 113.836C198.577 113.695 198.603 113.538 198.6 113.366L197.95 108.458C197.908 108.291 197.842 108.147 197.752 108.027C197.674 107.924 197.567 107.836 197.429 107.762C197.29 107.683 197.11 107.659 196.887 107.69C196.66 107.722 196.488 107.796 196.37 107.911C196.256 108.021 196.176 108.136 196.127 108.256C196.067 108.397 196.041 108.554 196.049 108.725L196.7 113.634ZM206.007 114.29C205.973 114.369 205.935 114.453 205.893 114.543C205.85 114.628 205.797 114.709 205.733 114.787C205.674 114.859 205.601 114.924 205.515 114.98C205.433 115.031 205.332 115.065 205.211 115.082C205.153 115.091 205.088 115.087 205.017 115.073C204.951 115.057 204.879 115.035 204.802 115.007C204.6 114.932 204.45 114.844 204.353 114.745C204.261 114.639 204.202 114.529 204.177 114.415C204.167 114.268 204.175 114.141 204.2 114.034C204.225 113.922 204.259 113.811 204.304 113.701L207.417 105.083C207.445 105 207.479 104.916 207.517 104.832C207.555 104.748 207.599 104.67 207.648 104.599C207.698 104.528 207.757 104.468 207.824 104.419C207.891 104.37 207.973 104.338 208.07 104.325C208.172 104.311 208.265 104.31 208.35 104.322C208.44 104.329 208.531 104.349 208.624 104.38C208.821 104.451 208.965 104.537 209.057 104.637C209.149 104.737 209.203 104.846 209.218 104.962C209.238 105.107 209.23 105.239 209.197 105.357C209.168 105.474 209.133 105.58 209.091 105.675L206.007 114.29ZM205.772 106.72C205.866 107.426 205.758 107.971 205.45 108.355C205.141 108.739 204.663 108.976 204.015 109.068C203.352 109.161 202.818 109.066 202.411 108.783C202.009 108.5 201.761 108.005 201.667 107.298C201.574 106.596 201.685 106.058 202 105.683C202.319 105.303 202.81 105.066 203.472 104.973C204.163 104.875 204.695 104.966 205.067 105.244C205.443 105.521 205.678 106.013 205.772 106.72ZM211.804 112.097C211.898 112.804 211.79 113.349 211.482 113.733C211.173 114.117 210.695 114.354 210.047 114.446C209.384 114.539 208.85 114.444 208.443 114.161C208.041 113.878 207.793 113.382 207.699 112.676C207.606 111.974 207.717 111.436 208.032 111.061C208.351 110.681 208.842 110.444 209.504 110.35C210.195 110.253 210.727 110.343 211.099 110.621C211.475 110.899 211.711 111.391 211.804 112.097ZM204.452 106.905C204.388 106.421 204.119 106.213 203.645 106.28C203.413 106.312 203.242 106.398 203.133 106.537C203.022 106.671 202.983 106.861 203.016 107.108C203.048 107.35 203.135 107.522 203.277 107.626C203.419 107.729 203.606 107.764 203.838 107.732C204.311 107.665 204.516 107.39 204.452 106.905ZM210.484 112.283C210.42 111.799 210.151 111.591 209.677 111.657C209.445 111.69 209.274 111.776 209.165 111.915C209.054 112.048 209.015 112.239 209.048 112.486C209.08 112.728 209.167 112.9 209.309 113.004C209.451 113.107 209.638 113.142 209.87 113.11C210.344 113.043 210.548 112.767 210.484 112.283Z" fill="black"/>
</svg>
