<svg width="87" height="87" viewBox="0 0 87 87" fill="none" xmlns="http://www.w3.org/2000/svg">
<rect width="86.4189" height="86.4189" rx="17" fill="#BE100F"/>
<path d="M37.1524 53.0004C38.1735 52.6493 38.4769 51.7813 38.4769 51.2343C38.4769 49.2158 37.7786 47.2782 36.7148 45.5628C35.4139 43.4649 34.9436 42.0671 34.9436 41.3412V37.5254C34.9436 37.0615 34.9962 36.5595 35.0767 36.0735C35.3291 34.5486 35.7151 32.9702 36.6423 31.7336C37.8189 30.1642 39.8134 28.8897 41.3034 29.7523C43.9887 31.3069 44.978 35.4054 45.2606 36.6774C45.3805 37.2167 45.3865 38.0246 45.3587 38.8473C45.3127 40.2073 45.1774 41.5752 45.0542 42.9304C45.0386 43.1012 45.0219 43.2717 45.0035 43.4374C44.8904 44.455 44.3656 45.4398 44.13 45.5811C42.1903 46.9389 41.4503 49.3716 41.5508 51.7371C41.5599 51.9502 41.5715 52.1606 41.5861 52.3649C41.6992 53.9478 43.1407 54.6261 43.8474 54.7675C45.0251 54.8617 47.5502 55.1349 48.2285 55.4741C48.2524 55.4861 48.2765 55.4977 48.3008 55.509C49.3949 56.0201 50.8009 55.811 51.4742 54.8085C51.5483 54.6981 51.6151 54.5856 51.6748 54.4738C52.0033 53.8586 52.0444 53.1439 52.0444 52.4465V49.8779C52.0444 49.2921 51.845 48.7238 51.4791 48.2663L50.8925 47.6797C49.5488 46.336 48.7939 44.5135 48.7939 42.6132V39.928C48.7939 38.9104 48.8194 35.523 49.0765 33.5444V32.8378V32.6296C49.0765 32.2205 49.1267 31.8128 49.2259 31.4159L49.2782 31.2068C49.332 30.9915 49.4092 30.7828 49.5085 30.5843L49.5548 30.4917C49.7055 30.1902 49.9057 29.903 50.2071 29.7523C50.8235 29.4441 50.6315 30.9514 50.6302 31.6405C50.6177 38.627 50.4803 38.4075 50.5505 39.4129C50.5933 40.0266 50.9351 40.8876 51.5492 40.8496C52.3356 40.8009 52.4743 39.9193 52.4851 39.1314L52.5391 35.1934L52.5744 32.6142L52.5921 31.3246L52.6009 30.6798C52.6068 30.2507 52.5559 29.733 52.8965 29.472C53.1703 29.2621 53.5478 29.4573 53.7404 30.0349C54.0096 30.8426 54.1506 32.1632 54.1634 39.2481C54.1647 39.9674 54.4666 41.1409 55.1607 40.9526C55.8549 40.7643 55.8603 39.972 55.8603 39.2528V30.04C55.8603 29.8811 55.9922 29.702 56.1429 29.7523C57.1605 30.0915 57.4149 33.3797 57.4149 34.9815V42.9364C57.4149 44.6379 56.7794 46.278 55.633 47.5353L55.1096 48.1093C54.6914 48.5679 54.3937 49.1231 54.2432 49.7252L54.2317 49.771C54.111 50.2541 54.0939 50.7573 54.1816 51.2475C54.2635 51.7053 54.4263 52.1498 54.7247 52.5063C55.2482 53.1318 56.0264 53.8073 56.7083 53.6368C58.2455 53.2525 58.0939 51.0968 58.5152 49.5693C58.5487 49.4477 58.5841 49.3314 58.6206 49.221C58.8722 48.4603 59.2717 47.7561 59.5918 47.0217L61.5134 42.6132C63.2094 38.2037 62.2201 32.7673 61.5134 30.6003C60.901 28.8101 58.913 25.0319 55.8603 24.2405C53.8638 23.7229 51.2857 23.8823 49.4174 23.8964C47.9545 23.9075 46.536 23.4441 45.1234 23.0638C43.5449 22.6387 41.324 22.2578 38.4769 22.8272C33.9544 23.7317 31.9758 27.1613 31.5518 28.763C30.9906 30.8829 29.95 35.1699 30.1385 37.2427C30.1385 39.3626 30.4494 40.2672 31.1278 48.4077C31.2185 50.1323 32.3781 51.3517 33.5206 52.1407C34.5851 52.8759 35.929 53.421 37.1524 53.0004Z" fill="white"/>
<path d="M28.735 36.4778C28.7003 35.9128 28.5632 35.6228 28.4183 35.492C28.2787 35.3661 28.0652 35.4054 27.8772 35.4054C26.7466 35.2641 26.7466 36.8187 26.7466 37.1014C26.7466 37.2875 26.7466 37.351 26.9886 37.5341C27.3674 37.8206 28.3662 37.9989 28.6312 37.6048C28.9067 37.1951 28.7652 36.9705 28.735 36.4778Z" fill="white"/>
<path d="M27.3119 41.6239L27.335 41.6722C28.0826 43.2354 29.077 43.0725 29.1492 41.3412C29.2803 39.7673 26.7991 39.6537 27.1688 41.1892C27.2078 41.3511 27.2589 41.5001 27.3119 41.6239Z" fill="white"/>
<path d="M37.1524 53.0004C38.1735 52.6493 38.4769 51.7813 38.4769 51.2343C38.4769 49.2158 37.7786 47.2782 36.7148 45.5628C35.4139 43.4649 34.9436 42.0671 34.9436 41.3412V37.5254C34.9436 37.0615 34.9962 36.5595 35.0767 36.0735C35.3291 34.5486 35.7151 32.9702 36.6423 31.7336C37.8189 30.1642 39.8134 28.8897 41.3034 29.7523C43.9887 31.3069 44.978 35.4054 45.2606 36.6774C45.3805 37.2167 45.3865 38.0246 45.3587 38.8473C45.3127 40.2073 45.1774 41.5752 45.0542 42.9304C45.0386 43.1012 45.0219 43.2717 45.0035 43.4374C44.8904 44.455 44.3656 45.4398 44.13 45.5811C42.1903 46.9389 41.4503 49.3716 41.5508 51.7371C41.5599 51.9502 41.5715 52.1606 41.5861 52.3649C41.6992 53.9478 43.1407 54.6261 43.8474 54.7675C45.0251 54.8617 47.5502 55.1349 48.2285 55.4741C48.2524 55.4861 48.2765 55.4977 48.3008 55.509C49.3949 56.0201 50.8009 55.811 51.4742 54.8085C51.5483 54.6981 51.6151 54.5856 51.6748 54.4738C52.0033 53.8586 52.0444 53.1439 52.0444 52.4465V49.8779C52.0444 49.2921 51.845 48.7238 51.4791 48.2663L50.8925 47.6797C49.5488 46.336 48.7939 44.5135 48.7939 42.6132V39.928C48.7939 38.9104 48.8194 35.523 49.0765 33.5444V32.8378V32.6296C49.0765 32.2205 49.1267 31.8128 49.2259 31.4159L49.2782 31.2068C49.332 30.9915 49.4092 30.7828 49.5085 30.5843L49.5548 30.4917C49.7055 30.1902 49.9057 29.903 50.2071 29.7523C50.8235 29.4441 50.6315 30.9514 50.6302 31.6405C50.6177 38.627 50.4803 38.4075 50.5505 39.4129C50.5933 40.0266 50.9351 40.8876 51.5492 40.8496C52.3356 40.8009 52.4743 39.9193 52.4851 39.1314L52.5391 35.1934L52.5744 32.6142L52.5921 31.3246L52.6009 30.6798C52.6068 30.2507 52.5559 29.733 52.8965 29.472C53.1703 29.2621 53.5478 29.4573 53.7404 30.0349C54.0096 30.8426 54.1506 32.1632 54.1634 39.2481C54.1647 39.9674 54.4666 41.1409 55.1607 40.9526C55.8549 40.7643 55.8603 39.972 55.8603 39.2528V30.04C55.8603 29.8811 55.9922 29.702 56.1429 29.7523C57.1605 30.0915 57.4149 33.3797 57.4149 34.9815V42.9364C57.4149 44.6379 56.7794 46.278 55.633 47.5353L55.1096 48.1093C54.6914 48.5679 54.3937 49.1231 54.2432 49.7252L54.2317 49.771C54.111 50.2541 54.0939 50.7573 54.1816 51.2475C54.2635 51.7053 54.4263 52.1498 54.7247 52.5063C55.2482 53.1318 56.0264 53.8073 56.7083 53.6368C58.2455 53.2525 58.0939 51.0968 58.5152 49.5693C58.5487 49.4477 58.5841 49.3314 58.6206 49.221C58.8722 48.4603 59.2717 47.7561 59.5918 47.0217L61.5134 42.6132C63.2094 38.2037 62.2201 32.7673 61.5134 30.6003C60.901 28.8101 58.913 25.0319 55.8603 24.2405C53.8638 23.7229 51.2857 23.8823 49.4174 23.8964C47.9545 23.9075 46.536 23.4441 45.1234 23.0638C43.5449 22.6387 41.324 22.2578 38.4769 22.8272C33.9544 23.7317 31.9758 27.1613 31.5518 28.763C30.9906 30.8829 29.95 35.1699 30.1385 37.2427C30.1385 39.3626 30.4494 40.2672 31.1278 48.4077C31.2185 50.1323 32.3781 51.3517 33.5206 52.1407C34.5851 52.8759 35.929 53.421 37.1524 53.0004Z" stroke="white"/>
<path d="M28.735 36.4778C28.7003 35.9128 28.5632 35.6228 28.4183 35.492C28.2787 35.3661 28.0652 35.4054 27.8772 35.4054C26.7466 35.2641 26.7466 36.8187 26.7466 37.1014C26.7466 37.2875 26.7466 37.351 26.9886 37.5341C27.3674 37.8206 28.3662 37.9989 28.6312 37.6048C28.9067 37.1951 28.7652 36.9705 28.735 36.4778Z" stroke="white"/>
<path d="M27.3119 41.6239L27.335 41.6722C28.0826 43.2354 29.077 43.0725 29.1492 41.3412C29.2803 39.7673 26.7991 39.6537 27.1688 41.1892C27.2078 41.3511 27.2589 41.5001 27.3119 41.6239Z" stroke="white"/>
<path d="M62.2484 49.8369C62.7 49.5023 63.0968 48.9974 63.2093 48.2664C63.4639 46.6112 61.3797 46.2126 60.6767 47.7326C60.3213 48.5011 60.251 49.1706 60.1001 49.397C59.5854 50.169 61.5028 50.3891 62.2484 49.8369Z" fill="white" stroke="white"/>
<path d="M31.4605 26.569C31.0845 25.3274 30.4913 23.6751 29.9972 23.6751C29.0079 23.6751 27.8773 24.0991 26.1813 23.6751C25.1909 23.4275 23.0917 21.5892 22.8398 19.258C22.4561 15.7064 25.1285 10.4173 27.4533 7.705C28.6525 6.30591 30.2799 4.59579 35.2264 4.17178C38.2814 3.90991 39.7613 5.87853 40.5775 7.18304C41.0872 7.99769 41.9032 8.10865 42.8502 7.94539C44.6132 7.64147 47.0465 7.57419 48.5113 8.6943C50.4333 10.1641 50.537 13.3582 50.3485 14.7714C50.07 15.7926 48.8311 17.8749 46.0909 18.1521C46.0218 18.1591 45.9673 18.4105 45.9673 18.48C45.9673 18.6437 46.2793 21.2724 46.3319 21.4274C46.3769 21.56 46.4232 21.6723 46.4694 21.7513C46.5543 21.8545 46.5856 21.8908 46.5327 21.8379C46.5117 21.8169 46.4905 21.7876 46.4694 21.7513C46.2448 21.4785 45.6454 20.7378 45.2371 19.9409C44.9755 19.4302 43.9199 19.1651 43.4196 19.446C42.997 19.6833 42.9705 19.2832 43.282 18.9119C43.7168 18.3937 43.952 18.0604 44.0599 17.8782C44.1127 17.789 44.1592 17.6956 44.2168 17.6093L44.2267 17.5943C44.348 17.4124 44.4127 17.1987 44.4127 16.98V16.0055C44.4127 15.3274 45.0203 14.9118 45.2055 15.5641C45.3673 16.1342 46.0017 16.8602 46.521 16.5746C47.3676 16.1089 48.2364 15.5122 48.5113 15.0541C48.765 14.6312 48.9054 13.9643 48.9516 13.3534C49.0231 12.4094 48.6908 11.4392 48.1488 10.663C48.1027 10.5969 48.0545 10.5319 48.0045 10.4689C47.4096 9.71989 46.3895 9.32982 45.4356 9.25968C45.0368 9.23036 44.5644 9.24966 44.0209 9.34696C42.1426 9.68321 40.2062 9.21698 39.0422 7.70501C38.7341 7.30471 37.6781 6.26803 36.4983 6.00906C30.7038 4.7371 23.4961 11.0969 29.9972 17.7393C30.0593 17.8014 29.9942 17.8984 29.9148 17.8611C29.0071 17.435 27.682 16.6312 27.1275 15.6849C26.9295 15.3471 26.5895 15.0701 26.2516 15.2679C25.8126 15.5248 25.2594 16.0499 24.768 17.0327C23.9766 18.6156 24.4383 20.1419 24.768 20.7072C25.1449 21.6023 26.7184 23.1098 29.9972 21.9792C30.267 21.8893 30.5594 21.93 30.7215 22.1637C31.345 23.0617 32.2945 25.4216 32.6054 26.2141C32.671 26.3812 32.6534 26.5678 32.5602 26.7211C32.2918 27.1627 31.6103 27.0636 31.4605 26.569Z" fill="white" stroke="white"/>
<path d="M13.7555 69.8165H12.8337H12.8324C11.9877 69.8165 10.7163 69.8165 10.7163 68.9723V64.3291C10.7163 61.4203 12.3841 58.0897 15.1388 59.0243C15.5073 59.1493 15.8096 59.3027 16.0228 59.4448C17.859 61.0056 16.9286 62.763 16.1414 63.553C16.0675 63.6271 16.0228 63.7256 16.0228 63.8302C16.0228 63.9535 16.0848 64.068 16.1838 64.1416C16.5829 64.4385 17.2182 65.0079 17.47 65.5954C17.7594 66.2708 17.5906 67.5653 17.47 68.1281C17.3866 68.4338 17.2345 68.6935 17.0477 68.9112C16.2753 69.8113 14.9416 69.8165 13.7555 69.8165Z" fill="white" stroke="white"/>
<path d="M13.3076 61.8198V60.6138C13.3076 60.5472 13.3616 60.4932 13.4282 60.4932H14.0034C14.1765 60.4932 14.3472 60.5549 14.4622 60.6842C15.1935 61.5068 14.7622 62.2455 14.3666 62.589C14.3074 62.6404 14.2302 62.664 14.1518 62.664C13.6856 62.664 13.3076 62.2861 13.3076 61.8198Z" fill="#BE100F" stroke="#BE100F"/>
<path d="M13.1357 67.005V65.7989C13.1357 65.7323 13.1897 65.6783 13.2563 65.6783H13.9603C14.0531 65.6783 14.147 65.6937 14.2334 65.7277C16.0258 66.4333 15.0152 67.7546 14.1006 67.8492H13.98C13.5137 67.8492 13.1357 67.4712 13.1357 67.005Z" fill="#BE100F" stroke="#BE100F"/>
<path d="M26.1783 60.6803C27.4681 60.0732 26.9859 58.8845 26.0286 58.7648H22.8941C21.3509 58.9577 20.8044 60.4527 20.724 61.176V67.5832C20.724 67.8095 20.5424 67.9501 20.4829 68.1684C20.4465 68.3017 22.3817 69.374 22.5199 69.374H26.0618C26.1181 69.374 26.1767 69.3607 26.2263 69.334C27.0697 68.8791 26.9866 68.3347 26.6736 67.921C26.3933 67.5504 25.9021 67.4451 25.4375 67.4451H24.0996C23.5004 67.4451 23.0146 66.9593 23.0146 66.36C23.0146 65.7608 23.5004 65.275 24.0996 65.275H25.1882C25.729 65.275 26.3223 65.1065 26.526 64.6056C26.6694 64.2532 26.6226 63.9308 26.4974 63.6676C26.2911 63.2334 25.7697 63.105 25.289 63.105H24.4951C23.6774 63.105 23.0146 62.4421 23.0146 61.6245V61.4312C23.0146 61.4219 23.0177 61.4063 23.0204 61.3973C23.0566 61.278 25.3636 60.6938 25.4884 60.6938H26.117C26.1378 60.6938 26.1596 60.6891 26.1783 60.6803Z" fill="white" stroke="white"/>
<path d="M64.8944 60.6803C66.1842 60.0732 65.702 58.8845 64.7447 58.7648H61.6101C60.067 58.9577 59.5204 60.4527 59.4401 61.176V67.5832C59.4401 67.8095 59.2585 67.9501 59.1989 68.1684C59.1626 68.3017 61.0978 69.374 61.2359 69.374H64.7778C64.8342 69.374 64.8927 69.3607 64.9423 69.334C65.7858 68.8791 65.7026 68.3347 65.3897 67.921C65.1094 67.5504 64.6182 67.4451 64.1536 67.4451H62.8157C62.2165 67.4451 61.7307 66.9593 61.7307 66.36C61.7307 65.7608 62.2165 65.275 62.8157 65.275H63.9043C64.445 65.275 65.0383 65.1065 65.2421 64.6056C65.3855 64.2532 65.3386 63.9308 65.2135 63.6676C65.0071 63.2334 64.4857 63.105 64.0051 63.105H63.2111C62.3935 63.105 61.7307 62.4421 61.7307 61.6245V61.4312C61.7307 61.4219 61.7338 61.4063 61.7365 61.3973C61.7727 61.278 64.0797 60.6938 64.2044 60.6938H64.8331C64.8538 60.6938 64.8757 60.6891 64.8944 60.6803Z" fill="white" stroke="white"/>
<path d="M32.4502 67.0653V64.4043C32.4502 64.3881 32.4714 64.3817 32.4803 64.3953L35.2175 68.5536C35.2737 68.639 35.3369 68.7205 35.4183 68.7825C35.7077 69.003 36.2278 69.2255 36.7221 69.1329C37.2881 69.0269 37.6786 68.4261 37.6786 67.8503V61.102C37.6786 60.3057 37.5108 59.3103 36.7204 59.2139C36.4255 59.1779 36.0975 59.2706 35.7786 59.5962C35.6061 59.7725 35.5362 60.0202 35.5297 60.2668L35.4267 64.1316C35.4249 64.1981 35.3383 64.2225 35.3021 64.1667L32.4502 59.4136C32.3551 59.2761 32.2158 59.1256 32.0429 59.0042C30.8301 58.1527 30.0737 60.338 30.0737 61.8199V64.1073V67.0496C30.0737 68.1326 30.179 69.6327 31.262 69.6327C32.3366 69.6327 32.4502 68.1399 32.4502 67.0653Z" fill="white" stroke="white"/>
<path d="M42.3404 59.2935C42.7122 58.9216 43.4332 58.7243 44.199 58.7718C45.893 58.8769 47.4531 61.7333 45.7723 61.4978C45.3928 61.4446 44.7134 60.928 44.3679 60.762C44.0117 60.5909 43.6896 60.6508 43.4124 60.8321C42.4525 61.4599 42.3754 62.813 42.377 63.96C42.3792 65.5245 42.5879 67.2484 43.3588 67.4412C44.309 67.6787 44.8667 67.1256 45.0926 66.7056C45.151 66.5969 45.1695 66.4728 45.1695 66.3494C45.1695 65.7649 44.6736 65.3185 44.1397 65.0807C43.6093 64.8444 43.2598 64.4285 43.3588 63.9331C43.5847 62.8036 44.4871 63.027 46.516 63.0278C46.5235 63.0278 46.5358 63.0292 46.5431 63.0305C46.7142 63.0605 47.3195 66.3439 47.3195 66.5176V67.328C47.347 67.8179 47.4602 68.4597 47.0932 68.4597C46.1414 68.4597 45.2394 68.8765 44.3187 69.118C43.1865 69.4151 42.0546 69.1182 41.5482 68.686C39.964 67.1017 39.964 61.1041 42.3404 59.2935Z" fill="white" stroke="white"/>
<path d="M70.0567 68.6046L69.8864 61.9625C69.8466 60.4113 70.6587 57.9266 71.6151 59.1486C71.7199 59.2825 71.7836 59.4448 71.7836 59.6247L72.1099 65.0089C72.1929 66.3791 73.0939 67.5317 74.4315 67.223C75.9281 66.8777 75.9281 67.5684 76.0433 68.1441C76.0702 68.2789 75.9926 68.4236 75.8549 68.5666C75.087 69.3637 73.8852 69.5371 72.7819 69.6247C72.2798 69.6646 71.7583 69.6803 71.3231 69.6407C70.3099 69.5486 70.0567 68.9116 70.0567 68.6046Z" fill="white" stroke="white"/>
<path d="M52.748 62.0384L52.6512 60.9246C52.5648 59.9316 52.0341 58.3686 51.195 58.9066C50.7565 59.1877 50.814 59.684 50.814 60.2049V68.8645C50.814 68.9937 50.871 69.1065 50.9641 69.1992C51.8435 70.074 52.4063 68.3568 52.4011 67.1164C52.3984 66.4788 52.4736 65.9523 52.748 65.9065C53.4307 65.7928 54.8528 67.2718 54.3408 68.637C53.9284 69.7368 56.0119 68.6119 56.1437 67.4448C56.24 66.5926 56.1021 66.0417 55.9336 65.7047C55.7243 65.2861 55.2744 64.8916 54.8384 64.5765C54.2227 64.1316 54.0011 63.4262 54.3408 62.7468C54.9097 61.8624 55.1372 61.3815 56.2749 59.9905C56.436 59.7936 56.3887 58.9666 55.3647 58.9666C54.7959 58.9666 52.748 62.3175 52.748 62.7468V62.0384Z" fill="white" stroke="white"/>
<path d="M48.0491 72.9375V75.7923" stroke="white" stroke-width="3.5" stroke-linecap="round"/>
<path d="M50.6946 72.9375V75.7923" stroke="white" stroke-width="3.5" stroke-linecap="round"/>
<path d="M48.0607 76.0308C48.0607 76.2412 48.0338 76.4741 48.1014 76.677C48.1228 76.7412 48.1223 76.8185 48.1587 76.878C48.2231 76.9835 48.3024 77.0616 48.408 77.1273C48.483 77.174 48.591 77.2005 48.6777 77.2126C48.7995 77.2295 48.9158 77.2558 49.0396 77.2558C49.2028 77.2558 49.3693 77.2667 49.5312 77.2444C49.6448 77.2287 49.764 77.2257 49.8708 77.1782C50.1181 77.0683 50.4074 76.9763 50.5399 76.7114C50.5954 76.6004 50.6575 76.4998 50.6716 76.373C50.6937 76.1737 50.6824 75.9687 50.6824 75.7675" stroke="white" stroke-width="3.5" stroke-linecap="round"/>
<path d="M35.259 72.9375V77.1002" stroke="white" stroke-width="3.5" stroke-linecap="round"/>
<path d="M35.3962 72.9708H37.6077" stroke="white" stroke-width="3.5" stroke-linecap="round"/>
<path d="M35.3962 75.0448H37.6077" stroke="white" stroke-width="3.5" stroke-linecap="round"/>
<path d="M35.3962 77.1189H37.6077" stroke="white" stroke-width="3.5" stroke-linecap="round"/>
<path d="M41.8267 72.922V77.0848" stroke="white" stroke-width="3.5" stroke-linecap="round"/>
<path d="M42.895 75.0929L44.1989 77.0487" stroke="white" stroke-width="3.5" stroke-linecap="round"/>
<path d="M42.0513 73.7387C42.1802 73.2372 42.5584 72.6056 43.1495 72.5922C43.6888 72.5799 44.2452 72.8719 44.3444 73.4422C44.3954 73.7357 44.4393 74.0677 44.2807 74.3362C44.0561 74.7162 43.7666 74.8036 43.3779 74.9468C43.0809 75.0562 42.7891 74.985 42.4884 74.9248C42.3434 74.8958 42.1884 74.7667 42.0513 74.7667" stroke="white" stroke-width="3.5" stroke-linecap="round"/>
<path d="M28.6914 72.8407V77.0034" stroke="white" stroke-width="3.5" stroke-linecap="round"/>
<path d="M28.7227 73.7387C28.8516 73.2372 29.2298 72.6056 29.8209 72.5922C30.3601 72.5799 30.9166 72.8719 31.0157 73.4422C31.0668 73.7357 31.1107 74.0677 30.952 74.3362C30.7275 74.7162 30.438 74.8036 30.0493 74.9468C29.7523 75.0562 29.4605 74.985 29.1597 74.9248C29.0148 74.8958 28.8598 74.7667 28.7227 74.7667" stroke="white" stroke-width="3.5" stroke-linecap="round"/>
<path d="M54.271 72.5918H57.9014" stroke="white" stroke-width="3.5" stroke-linecap="round"/>
<path d="M56.0051 73.1588C56.0051 74.3855 55.979 75.623 55.979 76.8437" stroke="white" stroke-width="3.5" stroke-linecap="round"/>
</svg>
