<svg width="35" height="35" viewBox="0 0 35 35" fill="none" xmlns="http://www.w3.org/2000/svg">
<path fill-rule="evenodd" clip-rule="evenodd" d="M1.87985 4.02938C1.9714 3.75424 2.16846 3.52671 2.4277 3.39682C2.68695 3.26692 2.98716 3.24529 3.26235 3.33667L3.70715 3.48542C4.62006 3.79021 5.39152 4.04688 5.99965 4.32979C6.64423 4.63021 7.20423 5.00063 7.6286 5.59125C8.05298 6.17896 8.22944 6.82792 8.30965 7.53521C8.35048 7.89688 8.36944 8.30083 8.37819 8.75H23.9911C26.988 8.75 28.4857 8.75 29.1346 9.73292C29.7821 10.7158 29.193 12.094 28.0117 14.8488L27.3876 16.3071C26.8363 17.5933 26.5607 18.235 26.0124 18.5967C25.464 18.9583 24.7655 18.9583 23.3655 18.9583H8.6086C8.76173 19.7458 9.00381 20.2067 9.34652 20.5494C9.75048 20.9533 10.3178 21.2158 11.3882 21.3602C12.4892 21.5075 13.949 21.5104 16.0417 21.5104H26.2501C26.5401 21.5104 26.8183 21.6257 27.0235 21.8308C27.2286 22.0359 27.3438 22.3141 27.3438 22.6042C27.3438 22.8942 27.2286 23.1724 27.0235 23.3776C26.8183 23.5827 26.5401 23.6979 26.2501 23.6979H15.9615C13.968 23.6979 12.3594 23.6979 11.0951 23.5273C9.78256 23.3523 8.67715 22.9731 7.79923 22.0967C6.92277 21.2188 6.54506 20.1133 6.3686 18.8008C6.19798 17.5365 6.19798 15.9279 6.19798 13.9344V10.0377C6.19798 8.99792 6.19798 8.30958 6.13673 7.78313C6.0784 7.28438 5.98069 7.04375 5.85381 6.87021C5.7284 6.69521 5.53152 6.52458 5.07652 6.31313C4.59527 6.09 3.9434 5.86979 2.95756 5.54021L2.5711 5.41188C2.29623 5.32003 2.06905 5.12285 1.93945 4.86364C1.80984 4.60443 1.78841 4.30438 1.87985 4.02938ZM11.6667 12.0313C11.3766 12.0313 11.0984 12.1465 10.8933 12.3516C10.6882 12.5567 10.573 12.8349 10.573 13.125C10.573 13.4151 10.6882 13.6933 10.8933 13.8984C11.0984 14.1035 11.3766 14.2188 11.6667 14.2188H16.0417C16.3318 14.2188 16.61 14.1035 16.8151 13.8984C17.0202 13.6933 17.1355 13.4151 17.1355 13.125C17.1355 12.8349 17.0202 12.5567 16.8151 12.3516C16.61 12.1465 16.3318 12.0313 16.0417 12.0313H11.6667Z" fill="#383636"/>
<path d="M10.9375 26.25C11.5177 26.25 12.0741 26.4805 12.4843 26.8907C12.8945 27.3009 13.125 27.8573 13.125 28.4375C13.125 29.0177 12.8945 29.5741 12.4843 29.9843C12.0741 30.3945 11.5177 30.625 10.9375 30.625C10.3573 30.625 9.80094 30.3945 9.3907 29.9843C8.98047 29.5741 8.75 29.0177 8.75 28.4375C8.75 27.8573 8.98047 27.3009 9.3907 26.8907C9.80094 26.4805 10.3573 26.25 10.9375 26.25ZM24.0625 26.25C24.6427 26.25 25.1991 26.4805 25.6093 26.8907C26.0195 27.3009 26.25 27.8573 26.25 28.4375C26.25 29.0177 26.0195 29.5741 25.6093 29.9843C25.1991 30.3945 24.6427 30.625 24.0625 30.625C23.4823 30.625 22.9259 30.3945 22.5157 29.9843C22.1055 29.5741 21.875 29.0177 21.875 28.4375C21.875 27.8573 22.1055 27.3009 22.5157 26.8907C22.9259 26.4805 23.4823 26.25 24.0625 26.25Z" fill="#383636"/>
</svg>
